<?xml version="1.0" encoding="UTF-8"?><svg id="Layer_1" xmlns="http://www.w3.org/2000/svg" viewBox="0 0 1920 1080"><defs><style>.cls-1{stroke-dasharray:0 0 10.46559 10.46557;}.cls-1,.cls-2,.cls-3{fill:none;stroke:#939598;stroke-miterlimit:10;}.cls-2{stroke-dasharray:0 0 9.89687 9.89685;}.cls-4,.cls-5,.cls-6,.cls-7,.cls-8{stroke-width:0px;}.cls-5{fill:#76b900;}.cls-6{fill:#808285;}.cls-7{fill:#add566;}.cls-8{fill:#939598;}</style></defs><path class="cls-4" d="m539.13135,170.13221v-25.20117h5.25635v10.11719h10.72803v-10.11719h5.25586v25.20117h-5.25586v-10.54883h-10.72803v10.54883h-5.25635Z"/><path class="cls-4" d="m565.51953,170.13221v-3.81641c0-1.72852.41943-3.28711,1.25977-4.67969.83984-1.39258,2.02783-2.49609,3.56396-3.3125l4.21191-2.26758c1.91992-1.00781,2.88037-2.24414,2.88037-3.70898v-.35938c0-.76758-.3125-1.4043-.93604-1.9082-.62451-.50391-1.4165-.75586-2.37598-.75586h-.18018c-1.12842,0-2.02197.2168-2.68213.64844s-1.146,1.11523-1.45801,2.05078l-4.31982-1.90723c1.17578-3.45605,4.00781-5.18457,8.49609-5.18457h.396c2.49561,0,4.47559.625,5.93994,1.87305,1.46338,1.24805,2.1958,2.92773,2.1958,5.03906v.57617c0,1.63281-.41406,3.01953-1.2417,4.1582-.82812,1.14062-2.23828,2.25-4.22998,3.33008l-3.70801,2.01562c-1.43994.79297-2.2085,2.01562-2.3042,3.67188h11.55615v4.53711h-17.06396Z"/><path class="cls-4" d="m595.61475,170.56385c-3.23975,0-5.7002-.99023-7.37988-2.9707-1.68018-1.97852-2.52002-4.81641-2.52002-8.51367v-2.66406c0-3.71875.83984-6.56348,2.52002-8.53125,1.67969-1.96875,4.14014-2.95312,7.37988-2.95312h.32422c3.24023,0,5.69971.98438,7.37988,2.95312,1.67969,1.96777,2.52002,4.8125,2.52002,8.53125v2.66406c0,3.69727-.84033,6.53516-2.52002,8.51367-1.68018,1.98047-4.13965,2.9707-7.37988,2.9707h-.32422Zm0-4.5h.32422c3.16797,0,4.75195-2.35156,4.75195-7.05664v-2.51953c0-4.70312-1.58398-7.05664-4.75195-7.05664h-.32422c-3.16797,0-4.75195,2.35352-4.75195,7.05664v2.51953c0,4.70508,1.58398,7.05664,4.75195,7.05664Z"/><path class="cls-4" d="m617.21436,170.56385c-3.23975,0-5.7002-.99023-7.37988-2.9707-1.68018-1.97852-2.52002-4.81641-2.52002-8.51367v-2.66406c0-3.71875.83984-6.56348,2.52002-8.53125,1.67969-1.96875,4.14014-2.95312,7.37988-2.95312h.32422c3.24023,0,5.69971.98438,7.37988,2.95312,1.67969,1.96777,2.52002,4.8125,2.52002,8.53125v2.66406c0,3.69727-.84033,6.53516-2.52002,8.51367-1.68018,1.98047-4.13965,2.9707-7.37988,2.9707h-.32422Zm0-4.5h.32422c3.16797,0,4.75195-2.35156,4.75195-7.05664v-2.51953c0-4.70312-1.58398-7.05664-4.75195-7.05664h-.32422c-3.16797,0-4.75195,2.35352-4.75195,7.05664v2.51953c0,4.70508,1.58398,7.05664,4.75195,7.05664Z"/><path class="cls-4" d="m640.146,170.13221v-25.20117h9.54004c2.92822,0,5.25.68457,6.96631,2.05273,1.71533,1.36816,2.57373,3.26367,2.57373,5.6875v.68359c0,1.70508-.41406,3.14453-1.2417,4.32031-.82812,1.17578-1.98633,2.06445-3.47412,2.66406l5.50781,9.79297h-5.72363l-4.96826-9h-3.92383v9h-5.25635Zm5.25635-13.53711h4.13965c1.27197,0,2.32764-.23828,3.16797-.71875.83984-.48047,1.26025-1.28516,1.26025-2.41211v-.90039c0-1.08008-.42041-1.86523-1.26025-2.35742-.84033-.49219-1.896-.73828-3.16797-.73828h-4.13965v7.12695Z"/><path class="cls-4" d="m670.60205,170.63611c-2.83203,0-5.02832-.80469-6.58789-2.41211-1.56055-1.60742-2.33984-3.875-2.33984-6.80469v-1.08008c0-2.92773.79199-5.20703,2.37598-6.83984,1.58398-1.63086,3.76758-2.44727,6.55176-2.44727h.28809c2.63965,0,4.69824.79688,6.17383,2.39453,1.47607,1.5957,2.21436,3.79688,2.21436,6.60547v2.26758h-12.63623c.16748,2.85547,1.48779,4.2832,3.95996,4.2832h.50391c1.896,0,3.22803-.63477,3.99609-1.90625l3.63623,2.41016c-.67236,1.10547-1.67432,1.96875-3.00635,2.59375-1.33154.62305-2.86182.93555-4.58984.93555h-.54004Zm-3.92383-11.70117h7.7041v-.10742c0-2.49609-1.16455-3.74414-3.49219-3.74414h-.28809c-2.30371,0-3.6123,1.28516-3.92383,3.85156Z"/><path class="cls-4" d="m689.60986,170.63611c-1.48828,0-2.82031-.35547-3.99609-1.0625s-2.09424-1.75781-2.75391-3.15039c-.66016-1.39062-.98975-3.08398-.98975-5.07617v-1.08008c0-1.99023.32959-3.67188.98975-5.03906.65967-1.36914,1.57812-2.40625,2.75391-3.11328,1.17578-.70898,2.50781-1.0625,3.99609-1.0625h.25195c2.23193,0,3.97217.74414,5.22021,2.23242v-9.43262h5.04004v26.28027h-4.39209v-2.30469c-1.27246,1.87305-3.22803,2.80859-5.86816,2.80859h-.25195Zm1.33203-4.32031h.28809c.64795,0,1.27197-.16211,1.87207-.48633.59961-.32422,1.0918-.8457,1.47607-1.56641.3833-.71875.57568-1.66797.57568-2.84375v-1.15234c0-1.17578-.19775-2.12305-.59375-2.84375-.396-.71875-.89453-1.24219-1.49414-1.56641-.6001-.32227-1.21191-.48438-1.83594-.48438h-.28809c-1.15186,0-2.1123.38281-2.87988,1.15039-.76855.76953-1.15186,2.00586-1.15186,3.70898v1.1875c0,1.70508.3833,2.94727,1.15186,3.72656.76758.7793,1.72803,1.16992,2.87988,1.16992Z"/><path class="cls-4" d="m711.24561,170.63611c-2.04053,0-3.66016-.6543-4.86035-1.96289-1.2002-1.30664-1.7998-3.17383-1.7998-5.59766v-11.51953h5.04004v10.83594c0,1.24805.23975,2.21289.71973,2.89844.47998.68359,1.23584,1.02539,2.26807,1.02539h.28809c.57617,0,1.12793-.15625,1.65625-.46875.52734-.31055.96582-.79688,1.31396-1.45703.34766-.66016.52197-1.50586.52197-2.53906v-10.29492h5.04004v18.57617h-4.39209v-2.30469c-.6001.91211-1.36816,1.60742-2.3042,2.08789s-1.97998.7207-3.13184.7207h-.35986Z"/><path class="cls-4" d="m734.24951,170.63611c-2.78467,0-4.99854-.79297-6.64209-2.37695-1.64404-1.58398-2.46582-3.875-2.46582-6.875v-1.08008c0-1.96875.37793-3.64258,1.13379-5.02148.75586-1.38086,1.81787-2.43164,3.18604-3.15039,1.36816-.7207,2.96387-1.08008,4.78809-1.08008h.28809c1.7998,0,3.31738.43164,4.55371,1.29492,1.23584.86523,2.11816,2.00391,2.646,3.41992l-4.06787,1.72852c-.28809-.62305-.68994-1.13281-1.20605-1.5293s-1.1582-.59375-1.92578-.59375h-.25195c-1.22412,0-2.21436.39062-2.97021,1.16992s-1.13379,1.99805-1.13379,3.6543v1.29492c0,1.70508.36523,2.93359,1.09766,3.68945.73193.75586,1.73389,1.13477,3.00635,1.13477h.25195c.83984,0,1.53564-.17969,2.08789-.54102.55176-.35938.98389-.85156,1.2959-1.47461l3.92383,2.05078c-.52783,1.22461-1.42773,2.24609-2.69971,3.06055-1.27246.81641-2.80811,1.22461-4.60791,1.22461h-.28809Z"/><path class="cls-4" d="m753.14941,170.63611c-2.83203,0-5.02832-.80469-6.58789-2.41211-1.56055-1.60742-2.33984-3.875-2.33984-6.80469v-1.08008c0-2.92773.79199-5.20703,2.37598-6.83984,1.58398-1.63086,3.76758-2.44727,6.55176-2.44727h.28807c2.63967,0,4.69826.79688,6.17385,2.39453,1.47607,1.5957,2.21436,3.79688,2.21436,6.60547v2.26758h-12.63623c.16748,2.85547,1.48779,4.2832,3.95996,4.2832h.50391c1.896,0,3.22803-.63477,3.99609-1.90625l3.63623,2.41016c-.67236,1.10547-1.67432,1.96875-3.00635,2.59375-1.33154.62305-2.86182.93555-4.58984.93555h-.54004Zm-3.92383-11.70117h7.7041v-.10742c0-2.49609-1.16455-3.74414-3.49221-3.74414h-.28807c-2.30371,0-3.6123,1.28516-3.92383,3.85156Z"/><path class="cls-4" d="m772.30127,170.63611c-4.31982,0-7.04395-1.41602-8.17188-4.24805l3.92383-1.98047c.33594.7207.83984,1.25391,1.51221,1.60156.67139.34961,1.5957.52344,2.77197.52344h.46777c2.06396,0,3.09619-.54102,3.09619-1.62109v-.14453c0-.91016-.6001-1.45117-1.80029-1.61914l-3.74365-.50391c-1.82422-.26367-3.22217-.85742-4.19434-1.78125-.97168-.92383-1.45801-2.16602-1.45801-3.72656v-.36133c0-1.77539.67822-3.17188,2.03418-4.19336,1.35547-1.01953,3.16211-1.5293,5.41797-1.5293h.54004c1.87207,0,3.45605.36523,4.75195,1.09766s2.23193,1.76953,2.80811,3.11328l-3.99609,1.76562c-.57568-1.24805-1.77637-1.87305-3.6001-1.87305h-.46777c-1.75244,0-2.62793.51562-2.62793,1.54883v.14258c0,.38477.13135.69141.396.91797.26367.22852.6958.39062,1.2959.48633l3.88818.54102c1.7998.24023,3.18604.86914,4.15771,1.88867.97217,1.02148,1.45801,2.31055,1.45801,3.87109v.35938c0,1.89648-.67188,3.32422-2.01611,4.28516-1.34424.95898-3.31201,1.43945-5.90381,1.43945h-.54004Z"/><path class="cls-4" d="m793.72119,170.13221v-25.20117h5.25635v20.66406h10.97998v4.53711h-16.23633Z"/><path class="cls-4" d="m813.88086,170.13221v-25.20117h5.25635v20.66406h10.97998v4.53711h-16.23633Z"/><path class="cls-4" d="m834.04102,170.13221v-25.20117h6.55225l7.2002,18.25195,7.19971-18.25195h6.37207v25.20117h-5.00391v-16.99219l-6.76807,16.99219h-3.78027l-6.76758-16.99219v16.99219h-5.00439Z"/><path class="cls-4" d="m876.34082,170.13221v-25.20117h16.74023v4.46484h-11.48389v5.79492h9.32373l-.61182,4.46484h-8.71191v6.01172h11.69971v4.46484h-16.95605Z"/><path class="cls-4" d="m897.43652,170.13221v-18.57617h4.39209v2.30273c.62402-.88672,1.42188-1.57617,2.39404-2.06836s2.05762-.73828,3.25781-.73828h.36035c2.11133,0,3.78564.6543,5.02197,1.96094,1.23584,1.30859,1.854,3.17578,1.854,5.59961v11.51953h-5.04004v-10.83594c0-1.24805-.2583-2.21484-.77393-2.89844-.5166-.68359-1.32666-1.02539-2.43018-1.02539h-.28809c-.6001,0-1.18213.15625-1.74609.4668-.56396.3125-1.03223.79297-1.40381,1.44141-.37256.64648-.55811,1.5-.55811,2.55469v10.29688h-5.04004Z"/><path class="cls-4" d="m927.13623,170.63611c-2.83203,0-5.02832-.80469-6.58789-2.41211-1.56055-1.60742-2.33984-3.875-2.33984-6.80469v-1.08008c0-2.92773.79199-5.20703,2.37598-6.83984,1.58398-1.63086,3.76758-2.44727,6.55176-2.44727h.28809c2.63965,0,4.69824.79688,6.17383,2.39453,1.47607,1.5957,2.21433,3.79688,2.21433,6.60547v2.26758h-12.63621c.16748,2.85547,1.48779,4.2832,3.95996,4.2832h.50391c1.896,0,3.22803-.63477,3.99609-1.90625l3.63623,2.41016c-.67236,1.10547-1.67432,1.96875-3.00635,2.59375-1.33154.62305-2.86182.93555-4.58984.93555h-.54004Zm-3.92383-11.70117h7.7041v-.10742c0-2.49609-1.16455-3.74414-3.49219-3.74414h-.28809c-2.30371,0-3.6123,1.28516-3.92383,3.85156Z"/><path class="cls-4" d="m939.37598,170.13221v-18.57617h4.39209v3.16797c.50391-1.08008,1.13965-1.91406,1.9082-2.50195.76758-.58789,1.81152-.88281,3.13184-.88281h1.97998v4.64453h-1.7998c-.72021,0-1.42822.14453-2.12402.43164-.69629.28906-1.27832.78711-1.74609,1.49414-.46826.70898-.70215,1.6875-.70215,2.93359v9.28906h-5.04004Z"/><path class="cls-4" d="m960.97607,177.83533c-1.82422,0-3.34229-.28711-4.55371-.86328-1.2124-.57617-2.1665-1.43945-2.8623-2.5918l3.52832-2.70117c.47949.7207,1.02588,1.23047,1.6377,1.53125.6123.29883,1.43408.44922,2.46631.44922h.43164c2.6875,0,4.03223-1.58398,4.03223-4.75195v-1.15234c-1.24805,1.48828-2.97656,2.23242-5.18408,2.23242h-.28809c-1.53613,0-2.88623-.37891-4.0498-1.13477-1.16455-.75586-2.07031-1.81055-2.71826-3.16797-.64795-1.35547-.97168-2.93359-.97168-4.73242v-.86523c0-1.79883.32373-3.37695.97168-4.73438.64795-1.35547,1.55371-2.41211,2.71826-3.16797,1.16357-.75586,2.51367-1.13281,4.0498-1.13281h.28809c2.63916,0,4.5835.93555,5.83154,2.80664v-2.26758h4.39258v17.13672c0,2.92773-.76855,5.17773-2.30469,6.75s-3.73145,2.35742-6.58789,2.35742h-.82764Zm.50342-12.16797h.32422c1.15234,0,2.09375-.43164,2.82617-1.29492.73145-.86523,1.09766-1.99219,1.09766-3.38477v-.93555c0-1.39258-.36621-2.51953-1.09766-3.38477-.73242-.86328-1.67383-1.29492-2.82617-1.29492h-.32422c-1.24756,0-2.22559.41406-2.93311,1.24219-.7085.82617-1.06201,1.97266-1.06201,3.4375v.90039c0,1.46289.35352,2.61523,1.06201,3.45508.70752.83984,1.68555,1.25977,2.93311,1.25977Z"/><path class="cls-4" d="m975.19531,177.33143v-4.24805h1.2959c1.05566,0,1.8418-.16797,2.3584-.50391.51562-.33594.92969-.99609,1.24219-1.98047l.14355-.50391-7.16406-18.53906h5.43652l4.31934,13.10352,3.85254-13.10352h5.07617l-6.55273,18.82812c-.50391,1.46289-1.01367,2.65039-1.5293,3.56445-.5166.91016-1.09277,1.61328-1.72852,2.10547s-1.37988.82812-2.23145,1.00781c-.85254.17969-1.87891.26953-3.07812.26953h-1.44043Z"/><path class="cls-4" d="m1024.37109,144.93103v15.30078c0,3.28906-.8877,5.84375-2.66406,7.66797s-4.30762,2.73633-7.5957,2.73633h-.36035c-3.26367,0-5.79004-.91211-7.57812-2.73633s-2.68164-4.37891-2.68164-7.66797v-15.30078h5.25586v15.4082c0,1.99219.44434,3.43945,1.33203,4.33789.8877.90039,2.12402,1.35156,3.70801,1.35156h.28809c1.58398,0,2.81934-.45117,3.70801-1.35156.8877-.89844,1.33203-2.3457,1.33203-4.33789v-15.4082h5.25586Z"/><path class="cls-4" d="m1035.60352,170.63611c-4.32031,0-7.04395-1.41602-8.17188-4.24805l3.92383-1.98047c.33594.7207.83984,1.25391,1.51172,1.60156.67188.34961,1.5957.52344,2.77246.52344h.46777c2.06348,0,3.0957-.54102,3.0957-1.62109v-.14453c0-.91016-.59961-1.45117-1.7998-1.61914l-3.74414-.50391c-1.82422-.26367-3.22168-.85742-4.19434-1.78125-.97168-.92383-1.45801-2.16602-1.45801-3.72656v-.36133c0-1.77539.67871-3.17188,2.03418-4.19336,1.35547-1.01953,3.16211-1.5293,5.41797-1.5293h.54004c1.87207,0,3.45605.36523,4.75195,1.09766s2.23242,1.76953,2.80859,3.11328l-3.99609,1.76562c-.57617-1.24805-1.77637-1.87305-3.60059-1.87305h-.46777c-1.75195,0-2.62793.51562-2.62793,1.54883v.14258c0,.38477.13184.69141.39648.91797.26367.22852.69531.39062,1.2959.48633l3.8877.54102c1.7998.24023,3.18652.86914,4.1582,1.88867.97168,1.02148,1.45801,2.31055,1.45801,3.87109v.35938c0,1.89648-.67188,3.32422-2.0166,4.28516-1.34375.95898-3.31152,1.43945-5.90332,1.43945h-.54004Z"/><path class="cls-4" d="m1055.33105,170.63611c-2.83203,0-5.02832-.80469-6.58789-2.41211-1.56055-1.60742-2.33984-3.875-2.33984-6.80469v-1.08008c0-2.92773.79199-5.20703,2.37598-6.83984,1.58398-1.63086,3.76758-2.44727,6.55176-2.44727h.28809c2.63965,0,4.69824.79688,6.17383,2.39453,1.47656,1.5957,2.21484,3.79688,2.21484,6.60547v2.26758h-12.63672c.16797,2.85547,1.48828,4.2832,3.95996,4.2832h.50391c1.89648,0,3.22852-.63477,3.99609-1.90625l3.63672,2.41016c-.67285,1.10547-1.6748,1.96875-3.00684,2.59375-1.33105.62305-2.86133.93555-4.58984.93555h-.54004Zm-3.92383-11.70117h7.7041v-.10742c0-2.49609-1.16406-3.74414-3.49219-3.74414h-.28809c-2.30371,0-3.6123,1.28516-3.92383,3.85156Z"/><path class="cls-4" d="m1081.93555,170.63611c-1.99316,0-3.53418-.49219-4.62598-1.47656-1.09277-.98438-1.63867-2.36328-1.63867-4.14062,0-1.63086.49805-2.93945,1.49414-3.92383.99609-.98242,2.44238-1.5957,4.33789-1.83594l5.83203-.75586v-.14453c0-2.18359-.99609-3.27539-2.9873-3.27539h-.36035c-.88867,0-1.63281.16211-2.23242.48633s-1.10352.89453-1.51172,1.71094l-3.85156-2.01758c.55176-1.27148,1.48145-2.29102,2.79004-3.05859,1.30762-.76953,2.89746-1.15234,4.77051-1.15234h.53906c5.25586,0,7.88379,2.46094,7.88379,7.37891v11.70117h-4.3916v-2.33984c-.57617.88672-1.37402,1.58398-2.39355,2.08789-1.02051.50391-2.17871.75586-3.47461.75586h-.17969Zm5.39941-8.74805l-3.85156.53906c-1.10449.16797-1.87207.40234-2.30371.70312-.43262.30078-.64844.78516-.64844,1.45703,0,.64844.24609,1.1582.73828,1.53125.49121.37109,1.14551.55664,1.96191.55664h.28809c1.2002,0,2.13574-.34766,2.80762-1.04297.67188-.69727,1.00781-1.64453,1.00781-2.84375v-.90039Z"/><path class="cls-4" d="m1096.83887,170.13221v-18.57617h4.39258v2.30273c.62305-.88672,1.42188-1.57617,2.39355-2.06836s2.05762-.73828,3.25781-.73828h.36035c2.11133,0,3.78516.6543,5.02148,1.96094,1.23633,1.30859,1.85449,3.17578,1.85449,5.59961v11.51953h-5.04004v-10.83594c0-1.24805-.25781-2.21484-.77441-2.89844-.51562-.68359-1.32617-1.02539-2.42969-1.02539h-.28809c-.59961,0-1.18262.15625-1.74609.4668-.56445.3125-1.03223.79297-1.40332,1.44141-.37305.64648-.55859,1.5-.55859,2.55469v10.29688h-5.04004Z"/><path class="cls-4" d="m1125.35059,170.63611c-1.48926,0-2.82031-.35547-3.99609-1.0625-1.17676-.70703-2.09473-1.75781-2.75391-3.15039-.66113-1.39062-.99023-3.08398-.99023-5.07617v-1.08008c0-1.99023.3291-3.67188.99023-5.03906.65918-1.36914,1.57715-2.40625,2.75391-3.11328,1.17578-.70898,2.50684-1.0625,3.99609-1.0625h.25195c2.23145,0,3.97168.74414,5.21973,2.23242v-9.43262h5.04004v26.28027h-4.39258v-2.30469c-1.27148,1.87305-3.22754,2.80859-5.86719,2.80859h-.25195Zm1.33203-4.32031h.28711c.64844,0,1.27246-.16211,1.87207-.48633s1.0918-.8457,1.47656-1.56641c.38379-.71875.57617-1.66797.57617-2.84375v-1.15234c0-1.17578-.19824-2.12305-.59473-2.84375-.39551-.71875-.89355-1.24219-1.49316-1.56641-.60059-.32227-1.21289-.48438-1.83691-.48438h-.28711c-1.15234,0-2.1123.38281-2.88086,1.15039-.76758.76953-1.15137,2.00586-1.15137,3.70898v1.1875c0,1.70508.38379,2.94727,1.15137,3.72656.76855.7793,1.72852,1.16992,2.88086,1.16992Z"/><path class="cls-4" d="m1155.30176,170.13221v-20.66406h-7.55957v-4.53711h20.37598v4.53711h-7.55957v20.66406h-5.25684Z"/><path class="cls-4" d="m1181.25879,170.63611c-3.74414,0-6.58789-1.0918-8.53223-3.27734-1.94434-2.18359-2.91602-5.23047-2.91602-9.14258v-1.4043c0-2.54297.44336-4.74023,1.33203-6.58789.8877-1.84766,2.18359-3.27637,3.8877-4.28418,1.7041-1.00879,3.78027-1.5127,6.22852-1.5127h.28809c2.56738,0,4.70312.56445,6.40723,1.69238s2.9043,2.72461,3.60059,4.78809l-4.89648,1.72852c-.33594-1.24805-.9541-2.16016-1.85352-2.73633-.90039-.57617-1.98633-.86426-3.25781-.86426h-.2168c-1.96777,0-3.50391.63574-4.60742,1.90918-1.10449,1.27148-1.65625,3.19141-1.65625,5.75977v1.61914c0,2.66406.53418,4.61523,1.60254,5.84961,1.06738,1.23633,2.62109,1.85547,4.66113,1.85547h.2168c1.2959,0,2.41113-.2832,3.34766-.84766.93555-.5625,1.5957-1.46875,1.97949-2.7168l4.78809,1.87109c-.71973,1.99219-1.94336,3.54102-3.67188,4.64453-1.72754,1.10352-3.87598,1.65625-6.44336,1.65625h-.28809Z"/><path class="cls-4" d="m1206.27832,170.63611c-2.44824,0-4.54199-.50391-6.28223-1.51172s-3.07227-2.43555-3.99609-4.28516c-.92383-1.84766-1.38574-4.04297-1.38574-6.58789v-1.43945c0-2.54297.46191-4.74023,1.38574-6.58789s2.25586-3.27637,3.99609-4.28418c1.74023-1.00879,3.83398-1.5127,6.28223-1.5127h.36035c2.44727,0,4.54102.50391,6.28125,1.5127,1.74023,1.00781,3.07227,2.43652,3.99609,4.28418s1.38574,4.04492,1.38574,6.58789v1.43945c0,2.54492-.46191,4.74023-1.38574,6.58789-.92383,1.84961-2.25586,3.27734-3.99609,4.28516s-3.83398,1.51172-6.28125,1.51172h-.36035Zm.03613-4.60742h.28809c1.9668,0,3.5332-.63672,4.69727-1.9082,1.16406-1.27344,1.74609-3.19336,1.74609-5.76172v-1.6543c0-2.56836-.58203-4.48828-1.74609-5.75977-1.16406-1.27344-2.73047-1.90918-4.69727-1.90918h-.28809c-1.96875,0-3.53418.63574-4.69824,1.90918-1.16406,1.27148-1.74609,3.19141-1.74609,5.75977v1.6543c0,2.56836.58203,4.48828,1.74609,5.76172,1.16406,1.27148,2.72949,1.9082,4.69824,1.9082Z"/><path class="cls-4" d="m1241.77344,170.63611c-2.63965,0-4.5957-.93555-5.86719-2.80859v2.30469h-4.39258v-26.28027h5.04004v9.43262c1.24805-1.48828,2.98828-2.23242,5.21973-2.23242h.25195c1.5127,0,2.84961.35352,4.01465,1.0625,1.16406.70703,2.0752,1.75195,2.73535,3.13086.66016,1.38086.99023,3.06641.99023,5.05859v1.08008c0,1.99219-.33008,3.67773-.99023,5.05664-.66016,1.38086-1.57129,2.42578-2.73535,3.13281-1.16504.70703-2.50195,1.0625-4.01465,1.0625h-.25195Zm-1.36719-4.32031h.28711c1.15234,0,2.1123-.39062,2.88086-1.16992.76758-.7793,1.15137-2.00977,1.15137-3.68945v-1.18945c0-1.72656-.38379-2.97461-1.15137-3.74414-.76855-.76758-1.72852-1.15039-2.88086-1.15039h-.28711c-.60059,0-1.20605.16211-1.81836.48438-.6123.32422-1.11621.8418-1.51172,1.54883-.39648.70898-.59473,1.66211-.59473,2.86133v1.15234c0,1.17578.19824,2.125.59473,2.84375.39551.7207.89941,1.24219,1.51172,1.56641s1.21777.48633,1.81836.48633Z"/><path class="cls-4" d="m1252.57227,177.33143v-4.24805h1.29688c1.05566,0,1.84082-.16797,2.35742-.50391.51562-.33594.92969-.99609,1.24219-1.98047l.14355-.50391-7.16309-18.53906h5.43555l4.32031,13.10352,3.85156-13.10352h5.07617l-6.55176,18.82812c-.50391,1.46289-1.01465,2.65039-1.53027,3.56445-.5166.91016-1.09277,1.61328-1.72852,2.10547s-1.37988.82812-2.23145,1.00781c-.85254.17969-1.87793.26953-3.07812.26953h-1.44043Z"/><path class="cls-4" d="m1289.07617,170.56385c-4.58398,0-7.51172-1.5957-8.78418-4.78906l4.21191-1.87109c.62402,1.51172,2.05273,2.26758,4.28418,2.26758h.25195c1.2002,0,2.19043-.32422,2.9707-.9707.7793-.64844,1.16992-1.46484,1.16992-2.44922v-.43164c0-1.12695-.40918-2.04492-1.22461-2.75391-.81641-.70703-1.87207-1.0625-3.16797-1.0625h-.32422c-1.48828,0-2.97559.5293-4.46387,1.58398l-3.0957-1.36719.6123-13.35645h15.37207v4.53613h-11.12402l-.25195,5.50781c.55176-.35938,1.21777-.64844,1.99805-.86328.7793-.2168,1.60156-.32422,2.46582-.32422h.39551c1.53613,0,2.89844.3418,4.08594,1.02539,1.18848.68359,2.11816,1.62109,2.79004,2.80859s1.00781,2.55078,1.00781,4.08594v.61133c0,1.56055-.36621,2.92969-1.09766,4.10352-.73242,1.17773-1.75195,2.08789-3.05957,2.73633-1.30859.64844-2.82617.97266-4.55469.97266h-.46777Z"/><path class="cls-4" d="m1310.78418,170.56385c-3.24023,0-5.7002-.99023-7.37988-2.9707-1.68066-1.97852-2.52051-4.81641-2.52051-8.51367v-2.66406c0-3.71875.83984-6.56348,2.52051-8.53125,1.67969-1.96875,4.13965-2.95312,7.37988-2.95312h.32422c3.23926,0,5.69922.98438,7.37988,2.95312,1.67969,1.96777,2.51953,4.8125,2.51953,8.53125v2.66406c0,3.69727-.83984,6.53516-2.51953,8.51367-1.68066,1.98047-4.14062,2.9707-7.37988,2.9707h-.32422Zm0-4.5h.32422c3.16797,0,4.75195-2.35156,4.75195-7.05664v-2.51953c0-4.70312-1.58398-7.05664-4.75195-7.05664h-.32422c-3.16797,0-4.75195,2.35352-4.75195,7.05664v2.51953c0,4.70508,1.58398,7.05664,4.75195,7.05664Z"/><path class="cls-4" d="m1328.67578,158.93494c-1.17676,0-2.2207-.26953-3.13184-.80859-.91309-.54102-1.62695-1.2793-2.14258-2.21484-.5166-.93555-.77344-2.01562-.77344-3.24023v-1.47461c0-1.22461.25684-2.31055.77344-3.25879.51562-.94824,1.22949-1.68652,2.14258-2.21387.91113-.52734,1.95508-.79297,3.13184-.79297h.14355c1.17578,0,2.21973.26562,3.13184.79297s1.62598,1.26562,2.14258,2.21387c.51562.94824.77344,2.03418.77344,3.25879v1.47461c0,1.22461-.25781,2.30469-.77344,3.24023-.5166.93555-1.23047,1.67383-2.14258,2.21484-.91211.53906-1.95605.80859-3.13184.80859h-.14355Zm-2.66406,11.19727l17.35156-24.76855h5.18457l-17.35254,24.76855h-5.18359Zm2.66406-14.50781h.14355c.64844,0,1.15234-.24609,1.51172-.73828.36035-.49219.54004-1.2793.54004-2.35742v-1.18945c0-1.08008-.17969-1.86523-.54004-2.35742-.35938-.49219-.86328-.73828-1.51172-.73828h-.14355c-.64844,0-1.15234.24609-1.5127.73828-.35938.49219-.53906,1.27734-.53906,2.35742v1.18945c0,1.07812.17969,1.86523.53906,2.35742.36035.49219.86426.73828,1.5127.73828Zm16.84766,15.01172c-1.17578,0-2.21973-.26953-3.13184-.81055-.91211-.53906-1.62598-1.27734-2.1416-2.21289-.5166-.9375-.77441-2.01758-.77441-3.24023v-1.47656c0-1.22461.25781-2.31055.77441-3.25781.51562-.94727,1.22949-1.68555,2.1416-2.21484.91211-.52734,1.95605-.79102,3.13184-.79102h.14453c1.1748,0,2.21875.26367,3.13184.79102.91113.5293,1.625,1.26758,2.1416,2.21484.51562.94727.77441,2.0332.77441,3.25781v1.47656c0,1.22266-.25879,2.30273-.77441,3.24023-.5166.93555-1.23047,1.67383-2.1416,2.21289-.91309.54102-1.95703.81055-3.13184.81055h-.14453Zm0-3.3125h.14453c.64746,0,1.15137-.24609,1.51172-.73828.35938-.49219.54004-1.27734.54004-2.35742v-1.1875c0-1.08008-.18066-1.86719-.54004-2.35938-.36035-.49023-.86426-.73828-1.51172-.73828h-.14453c-.64746,0-1.15234.24805-1.51172.73828-.36035.49219-.54004,1.2793-.54004,2.35938v1.1875c0,1.08008.17969,1.86523.54004,2.35742.35938.49219.86426.73828,1.51172.73828Z"/><path class="cls-6" d="m820.36133,217.31092v-25.2002h2.98828v22.64453h12.05957v2.55566h-15.04785Z"/><path class="cls-6" d="m846.71289,217.74256c-1.58398,0-3.00586-.35449-4.26562-1.06152-1.25979-.70801-2.25684-1.7334-2.98828-3.07812-.73242-1.34375-1.09766-2.95215-1.09766-4.82422v-1.25977c0-1.87207.36523-3.47949,1.09766-4.82422.73145-1.34375,1.72849-2.36914,2.98828-3.07812,1.25977-.70703,2.68164-1.06152,4.26562-1.06152h.36035c1.60742,0,3.04199.35449,4.30176,1.06152,1.25977.70898,2.25586,1.72852,2.98828,3.06055.73145,1.33203,1.09766,2.93359,1.09766,4.80566v1.33203c0,1.87207-.36621,3.47363-1.09766,4.80566-.73242,1.33203-1.72852,2.35254-2.98828,3.06055-1.25977.70703-2.69434,1.06152-4.30176,1.06152h-.36035Zm.03613-2.4834h.28809c1.55957,0,2.87402-.54004,3.94238-1.62012,1.06738-1.08008,1.60156-2.6875,1.60156-4.82422v-1.33203c0-2.13574-.53418-3.74414-1.60156-4.82422-1.06836-1.08008-2.38281-1.62012-3.94238-1.62012h-.28809c-1.53613,0-2.83887.54004-3.90625,1.62012-1.06836,1.08008-1.60156,2.68848-1.60156,4.82422v1.33203c0,2.13672.5332,3.74414,1.60156,4.82422,1.06738,1.08008,2.37012,1.62012,3.90625,1.62012Z"/><path class="cls-6" d="m857.65723,198.9867h3.02441l4.46387,14.43652,4.31934-14.43652h2.55664l4.2832,14.40039,4.46484-14.40039h2.84375l-6.04785,18.32422h-2.55664l-4.35547-14.36426-4.35645,14.36426h-2.55566l-6.08398-18.32422Z"/><path class="cls-6" d="m893.83789,217.74256c-2.52051,0-4.5127-.7793-5.97656-2.33984-1.46387-1.55957-2.19531-3.75586-2.19531-6.58789v-1.33203c0-1.84766.33594-3.4375,1.00781-4.76953s1.62598-2.3584,2.8623-3.07812c1.23535-.7207,2.66895-1.08008,4.30176-1.08008h.28809c1.60742,0,2.99316.33594,4.1582,1.00781,1.16309.67188,2.06934,1.62598,2.71777,2.8623.64746,1.23633.97168,2.68164.97168,4.33789v2.19629h-13.46387c.02344,2.13574.50977,3.73145,1.45801,4.78711.94727,1.05664,2.2373,1.58398,3.87012,1.58398h.54004c1.19922,0,2.17773-.21582,2.93359-.64746s1.3623-1.05566,1.81836-1.87207l2.19629,1.33203c-.625,1.10449-1.53027,1.97949-2.71875,2.62793-1.1875.64844-2.59766.97168-4.22949.97168h-.54004Zm-5.29199-10.97949h10.58398v-.39648c0-1.77539-.4502-3.11914-1.35059-4.03125-.89941-.91211-2.11816-1.36816-3.65332-1.36816h-.28809c-1.48828,0-2.71777.49219-3.69043,1.47559-.97168.98438-1.50586,2.4248-1.60156,4.32031Z"/><path class="cls-6" d="m906.54492,217.31092v-18.32422h2.62793v3.85254c.43262-1.2002,1.08594-2.16602,1.96289-2.89844.875-.73145,2.15332-1.09766,3.83398-1.09766h1.69141v2.62793h-1.83594c-1.56055,0-2.85059.53418-3.87012,1.60156-1.02051,1.06836-1.53027,2.70605-1.53027,4.91406v9.32422h-2.87988Z"/><path class="cls-6" d="m930.05273,195.13514v-3.27637h3.02441v3.27637h-3.02441Zm.07227,22.17578v-18.32422h2.87988v18.32422h-2.87988Z"/><path class="cls-6" d="m944.9209,217.74256c-4.00879,0-6.62402-1.40332-7.84863-4.21191l2.30371-1.15137c.48047,1.00781,1.1709,1.75195,2.07031,2.23145.90039.48047,2.07031.71973,3.50977.71973h.39648c2.87988,0,4.32031-.92285,4.32031-2.77148v-.17969c0-1.6084-.94922-2.53223-2.84473-2.77246l-4.10352-.57617c-1.6084-.21582-2.85059-.73145-3.72656-1.54785-.87598-.81543-1.31348-1.91992-1.31348-3.31152v-.39648c0-1.55957.62402-2.81934,1.87207-3.78027,1.24707-.95898,2.8916-1.43945,4.93164-1.43945h.46777c1.67969,0,3.14453.3418,4.39258,1.02539,1.24707.68457,2.11133,1.63867,2.5918,2.8623l-2.30371,1.04395c-.76855-1.67969-2.32812-2.51953-4.68066-2.51953h-.43164c-1.24805,0-2.23828.25195-2.96973.75586-.73242.50391-1.09863,1.17578-1.09863,2.01562v.21582c0,.74512.22168,1.31445.66602,1.70996.44434.39648,1.16992.66602,2.17871.81055l4.13965.57617c1.58398.21582,2.81348.76855,3.69043,1.65625.875.8877,1.31348,2.04004,1.31348,3.45508v.39648c0,1.7041-.59961,2.99414-1.7998,3.87012s-2.95215,1.31348-5.25586,1.31348h-.46777Z"/><path class="cls-6" d="m966.62793,217.31092v-25.2002h9.25195c2.75977,0,4.86523.55859,6.31836,1.67383,1.45117,1.11621,2.17773,2.68164,2.17773,4.69824v.82812c0,2.28027-1.06836,3.91211-3.2041,4.89648,1.41602.45605,2.48438,1.16992,3.2041,2.1416s1.08008,2.1543,1.08008,3.5459v.86426c0,2.04004-.72656,3.6416-2.17871,4.80566s-3.55762,1.74609-6.31738,1.74609h-10.33203Zm2.98828-14.04004h6.15527c1.84766,0,3.24609-.33594,4.19434-1.00781s1.42188-1.63184,1.42188-2.87988v-.93652c0-2.51953-1.84863-3.7793-5.54395-3.7793h-6.22754v8.60352Zm0,11.48438h7.30762c1.87207,0,3.26365-.34277,4.17578-1.02637.91211-.68359,1.36816-1.66113,1.36816-2.93359v-.93652c0-1.31934-.45605-2.33398-1.36816-3.04199-.91213-.70703-2.32812-1.06152-4.24805-1.06152h-7.23535v9Z"/><path class="cls-6" d="m997.40723,217.74256c-2.51953,0-4.51172-.7793-5.97559-2.33984-1.46387-1.55957-2.19629-3.75586-2.19629-6.58789v-1.33203c0-1.84766.33594-3.4375,1.00781-4.76953s1.62598-2.3584,2.8623-3.07812c1.23633-.7207,2.66992-1.08008,4.30176-1.08008h.28809c1.60742,0,2.99414.33594,4.1582,1.00781s2.07031,1.62598,2.71777,2.8623c.64844,1.23633.97266,2.68164.97266,4.33789v2.19629h-13.46484c.02441,2.13574.50977,3.73145,1.45801,4.78711.94824,1.05664,2.23828,1.58398,3.87012,1.58398h.54004c1.2002,0,2.17871-.21582,2.93457-.64746s1.36133-1.05566,1.81738-1.87207l2.19629,1.33203c-.62402,1.10449-1.53027,1.97949-2.71777,2.62793-1.18848.64844-2.59863.97168-4.23047.97168h-.54004Zm-5.29199-10.97949h10.58398v-.39648c0-1.77539-.44922-3.11914-1.34961-4.03125s-2.11816-1.36816-3.6543-1.36816h-.28809c-1.48828,0-2.71777.49219-3.68945,1.47559-.97266.98438-1.50684,2.4248-1.60254,4.32031Z"/><path class="cls-6" d="m1017.81836,217.45447c-2.1123,0-3.6123-.49121-4.5-1.47559-.8877-.9834-1.33203-2.32715-1.33203-4.03223v-10.58398h-3.92383v-2.37598h3.92383v-5.54395h2.87988v5.54395h6.33594l-.39551,2.37598h-5.94043v10.4043c0,1.15234.26367,1.98633.79199,2.50195.52832.5166,1.34375.77441,2.44824.77441h3.0957v2.41113h-3.38379Z"/><path class="cls-6" d="m1032.83105,217.45447c-2.1123,0-3.6123-.49121-4.5-1.47559-.88867-.9834-1.33203-2.32715-1.33203-4.03223v-10.58398h-3.92383v-2.37598h3.92383v-5.54395h2.87988v5.54395h6.33594l-.39648,2.37598h-5.93945v10.4043c0,1.15234.26367,1.98633.79199,2.50195.52734.5166,1.34375.77441,2.44824.77441h3.0957v2.41113h-3.38379Z"/><path class="cls-6" d="m1047.69824,217.74256c-2.51953,0-4.51172-.7793-5.97559-2.33984-1.46387-1.55957-2.19629-3.75586-2.19629-6.58789v-1.33203c0-1.84766.33594-3.4375,1.00781-4.76953s1.62598-2.3584,2.8623-3.07812c1.23633-.7207,2.66992-1.08008,4.30176-1.08008h.28809c1.60742,0,2.99414.33594,4.1582,1.00781s2.07031,1.62598,2.71777,2.8623c.64844,1.23633.97266,2.68164.97266,4.33789v2.19629h-13.46484c.02441,2.13574.50977,3.73145,1.45801,4.78711.94824,1.05664,2.23828,1.58398,3.87012,1.58398h.54004c1.2002,0,2.17871-.21582,2.93457-.64746s1.36133-1.05566,1.81738-1.87207l2.19629,1.33203c-.62402,1.10449-1.53027,1.97949-2.71777,2.62793-1.18848.64844-2.59863.97168-4.23047.97168h-.54004Zm-5.29199-10.97949h10.58398v-.39648c0-1.77539-.44922-3.11914-1.34961-4.03125s-2.11816-1.36816-3.6543-1.36816h-.28809c-1.48828,0-2.71777.49219-3.68945,1.47559-.97266.98438-1.50684,2.4248-1.60254,4.32031Z"/><path class="cls-6" d="m1060.40625,217.31092v-18.32422h2.62793v3.85254c.43164-1.2002,1.08594-2.16602,1.96191-2.89844.87598-.73145,2.1543-1.09766,3.83398-1.09766h1.69238v2.62793h-1.83594c-1.56055,0-2.85059.53418-3.87012,1.60156-1.02051,1.06836-1.53027,2.70605-1.53027,4.91406v9.32422h-2.87988Z"/><path class="cls-6" d="m639.71484,835.33338v-25.2002h2.98828v22.64453h12.05957v2.55566h-15.04785Z"/><path class="cls-6" d="m659.01074,835.33338v-26.2793h2.87988v26.2793h-2.87988Z"/><path class="cls-6" d="m672.40234,835.76502c-1.96826,0-3.47998-.46777-4.53564-1.40332-1.05664-.93652-1.58398-2.28027-1.58398-4.03223,0-1.44043.44971-2.62207,1.34961-3.5459.90039-.92383,2.22607-1.50586,3.97803-1.74609l7.2002-.97168v-.14453c0-3.28809-1.46436-4.93164-4.39209-4.93164h-.396c-2.30371,0-3.87598.8877-4.71582,2.66406l-2.3042-1.11621c.55176-1.24805,1.43408-2.21973,2.646-2.91602s2.66992-1.04395,4.37402-1.04395h.54002c2.32765,0,4.09767.6123,5.31008,1.83594,1.21143,1.22363,1.81787,3,1.81787,5.32812v11.5918h-2.62795v-3.27637c-.55223,1.15234-1.39207,2.05859-2.52,2.71875-1.12842.65918-2.40039.98926-3.81592.98926h-.32422Zm6.4082-9.50391l-5.97607.86426c-1.39209.19238-2.36426.5166-2.91602.97168-.55225.45605-.82812,1.15234-.82812,2.08789,0,1.03223.32959,1.82422.99023,2.37598.65967.55273,1.61377.82812,2.86182.82812h.36035c1.65576,0,2.98779-.52734,3.99561-1.58398,1.0083-1.05566,1.51221-2.45996,1.51221-4.21191v-1.33203Z"/><path class="cls-6" d="m687.19824,835.33338v-18.32422h2.62793v3.27637c.50439-1.12793,1.22998-2.02832,2.17822-2.7002.94775-.67188,2.08154-1.00781,3.40186-1.00781h.32422c2.99951,0,4.96777,1.2959,5.90381,3.8877.52783-1.17578,1.30176-2.11719,2.32227-2.82617,1.01953-.70703,2.21387-1.06152,3.58203-1.06152h.32373c2.01611,0,3.6001.63574,4.75195,1.9082,1.15234,1.27246,1.72803,3.13184,1.72803,5.58008v11.26758h-2.87988v-10.7998c0-1.7998-.33643-3.16211-1.00781-4.08594-.67236-.92383-1.72803-1.38672-3.16846-1.38672h-.25195c-.81592,0-1.59619.23438-2.33984.70215-.74414.46875-1.34424,1.16504-1.7998,2.08789-.45654.9248-.68408,2.08301-.68408,3.47461v10.00781h-2.87988v-10.7998c0-1.7998-.33643-3.16211-1.0083-4.08594s-1.72803-1.38672-3.16797-1.38672h-.25195c-.81641,0-1.59033.23438-2.32178.70215-.73242.46875-1.33203,1.16504-1.80029,2.08789-.46779.9248-.70215,2.08301-.70215,3.47461v10.00781h-2.87988Z"/><path class="cls-6" d="m724.60205,835.76502c-1.96826,0-3.47998-.46777-4.53564-1.40332-1.05664-.93652-1.58398-2.28027-1.58398-4.03223,0-1.44043.44971-2.62207,1.34961-3.5459.90039-.92383,2.22607-1.50586,3.97803-1.74609l7.2002-.97168v-.14453c0-3.28809-1.46436-4.93164-4.39209-4.93164h-.396c-2.30371,0-3.87598.8877-4.71582,2.66406l-2.3042-1.11621c.55176-1.24805,1.43408-2.21973,2.646-2.91602s2.66992-1.04395,4.37402-1.04395h.54004c2.32764,0,4.09766.6123,5.31006,1.83594,1.21143,1.22363,1.81787,3,1.81787,5.32812v11.5918h-2.62793v-3.27637c-.55225,1.15234-1.39209,2.05859-2.52002,2.71875-1.12842.65918-2.40039.98926-3.81592.98926h-.32422Zm6.4082-9.50391l-5.97607.86426c-1.39209.19238-2.36426.5166-2.91602.97168-.55225.45605-.82812,1.15234-.82812,2.08789,0,1.03223.32959,1.82422.99023,2.37598.65967.55273,1.61377.82812,2.86182.82812h.36035c1.65576,0,2.98779-.52734,3.99561-1.58398,1.0083-1.05566,1.51221-2.45996,1.51221-4.21191v-1.33203Z"/><path class="cls-6" d="m739.07422,835.33338v-3.02441c0-3.5752,1.5957-6.19141,4.78809-7.84766l4.82373-2.51953c2.42383-1.24805,3.63623-2.86816,3.63623-4.86035v-.50391c0-1.17578-.44434-2.12402-1.33203-2.84375-.88818-.7207-2.05225-1.08008-3.49219-1.08008h-.28809c-1.46387,0-2.64014.27539-3.52783.82812-.88818.55176-1.57227,1.42773-2.05225,2.62695l-2.48389-1.08008c1.24756-3.2627,3.93604-4.89551,8.06396-4.89551h.396c1.53564,0,2.87402.26465,4.01416.79199,1.13965.52832,2.02783,1.2666,2.66406,2.21484.63574.94727.9541,2.06934.9541,3.36523v.6123c0,1.58398-.40234,2.92773-1.20605,4.03223-.80469,1.10352-2.1665,2.14746-4.08594,3.13184l-4.68018,2.41211c-1.104.55176-1.9082,1.30762-2.41211,2.26758s-.75586,2.16016-.75586,3.59961v.18066h13.28369v2.5918h-16.30762Z"/><path class="cls-6" d="m774.74951,835.33338v-2.84375c0-1.48828.21582-2.92773.64795-4.32031.43164-1.3916,1.15186-3,2.15967-4.82422l5.5083-10.1875h-13.03223v-2.5918h16.45215v2.26758l-6.37207,11.7002c-.86377,1.58398-1.48242,3-1.854,4.24805-.37256,1.24805-.55811,2.54395-.55811,3.8877v2.66406h-2.95166Z"/><path class="cls-6" d="m799.58887,835.76502c-2.92822,0-5.19629-.9834-6.8042-2.95117s-2.41162-4.72852-2.41162-8.28027v-3.16797c0-3.57617.80371-6.3418,2.41162-8.29785s3.87598-2.93457,6.8042-2.93457h.43213c2.92773,0,5.18945.97852,6.78564,2.93457s2.39404,4.72168,2.39404,8.29785v3.16797c0,3.55176-.79785,6.3125-2.39404,8.28027s-3.85791,2.95117-6.78564,2.95117h-.43213Zm0-2.62793h.43213c2.01611,0,3.55762-.74316,4.62598-2.23145,1.06738-1.48828,1.60205-3.63672,1.60205-6.44434v-3.05957c0-2.78418-.53467-4.92578-1.60205-6.42578-1.06836-1.5-2.60986-2.25-4.62598-2.25h-.43213c-2.01611,0-3.55859.75-4.62598,2.25-1.06836,1.5-1.60205,3.6416-1.60205,6.42578v3.05957c0,2.80762.53369,4.95605,1.60205,6.44434,1.06738,1.48828,2.60986,2.23145,4.62598,2.23145Z"/><path class="cls-6" d="m814.02441,835.33338v-25.2002h9.25195c2.75977,0,4.86572.55762,6.31836,1.6748,1.45166,1.11523,2.17773,2.68164,2.17773,4.69727v.82812c0,2.28027-1.06836,3.91211-3.2041,4.89648,1.41602.45605,2.48438,1.16992,3.2041,2.1416.72021.97168,1.08008,2.1543,1.08008,3.5459v.86426c0,2.04004-.72607,3.6416-2.17822,4.80566s-3.55811,1.74609-6.31787,1.74609h-10.33203Zm2.98828-14.04004h6.15576c1.84766,0,3.24561-.33594,4.19385-1.00781s1.42236-1.63184,1.42236-2.87988v-.93652c0-2.51953-1.84863-3.78027-5.54395-3.78027h-6.22803v8.60449Zm0,11.48438h7.30762c1.87207,0,3.26367-.34277,4.17627-1.02637.91162-.68359,1.36768-1.66113,1.36768-2.93359v-.93652c0-1.31934-.45605-2.33398-1.36768-3.04199-.9126-.70703-2.32812-1.06152-4.24805-1.06152h-7.23584v9Z"/><path class="cls-6" d="m847.17969,835.33338v-25.2002h2.98828v22.64453h12.05957v2.55566h-15.04785Z"/><path class="cls-6" d="m867.01562,835.33338v-25.2002h2.98828v22.64453h12.05957v2.55566h-15.04785Z"/><path class="cls-6" d="m886.85156,835.33338v-25.2002h3.38428l9.71973,21.13184,9.68408-21.13184h3.31201v25.2002h-2.87988v-19.76367l-9.10791,19.76367h-2.12402l-9.1084-19.76367v19.76367h-2.87988Z"/><path class="cls-6" d="m929.0791,835.33338v-25.2002h2.98828v25.2002h-2.98828Z"/><path class="cls-6" d="m938.3667,835.33338v-18.32422h2.62793v3.27637c.50439-1.10352,1.27197-1.99805,2.3042-2.68262,1.03174-.68359,2.31592-1.02539,3.85205-1.02539h.32373c2.08838,0,3.76221.63574,5.02197,1.9082,1.26025,1.27246,1.89014,3.13184,1.89014,5.58008v11.26758h-2.87988v-10.7998c0-1.7998-.396-3.16211-1.18799-4.08594s-1.93213-1.38672-3.41992-1.38672h-.25195c-.96045,0-1.84863.23438-2.66406.70215-.81641.46875-1.47607,1.16504-1.97998,2.08789-.50391.9248-.75635,2.08301-.75635,3.47461v10.00781h-2.87988Z"/><path class="cls-6" d="m961.22656,835.33338v-15.94824h-3.81543v-2.37598h3.81543v-1.83594c0-1.94336.50391-3.47949,1.51172-4.60742,1.00879-1.12891,2.60449-1.69238,4.78809-1.69238h3.06055v2.44824h-2.98828c-1.2002,0-2.08203.31836-2.64551.95312-.56445.63672-.84668,1.56641-.84668,2.79102v1.94336h6.48047l-.36035,2.37598h-6.12012v15.94824h-2.87988Z"/><path class="cls-6" d="m980.63086,835.76502c-2.52051,0-4.5127-.7793-5.97656-2.33984-1.46387-1.55957-2.19531-3.75586-2.19531-6.58789v-1.33203c0-1.84766.33594-3.4375,1.00781-4.76953s1.62598-2.3584,2.8623-3.07812c1.23535-.7207,2.66895-1.08008,4.30176-1.08008h.28809c1.60742,0,2.99316.33594,4.1582,1.00781,1.16309.67188,2.06934,1.62598,2.71777,2.8623.64746,1.23633.97168,2.68164.97168,4.33789v2.19629h-13.46387c.02344,2.13574.50974,3.73145,1.45801,4.78711.94727,1.05664,2.2373,1.58398,3.87012,1.58398h.54004c1.19922,0,2.17773-.21582,2.93359-.64746s1.3623-1.05566,1.81836-1.87207l2.19629,1.33203c-.625,1.10449-1.53027,1.97949-2.71875,2.62793-1.1875.64844-2.59766.97168-4.22949.97168h-.54004Zm-5.29199-10.97949h10.58398v-.39648c0-1.77539-.4502-3.11914-1.35059-4.03125-.89941-.91211-2.11816-1.36816-3.65332-1.36816h-.28809c-1.48828,0-2.71777.49219-3.69043,1.47559-.97168.98438-1.50586,2.4248-1.60156,4.32031Z"/><path class="cls-6" d="m993.33789,835.33338v-18.32422h2.62793v3.85254c.43262-1.2002,1.08594-2.16602,1.96289-2.89844.875-.73145,2.15332-1.09766,3.83398-1.09766h1.69141v2.62793h-1.83594c-1.56055,0-2.85059.53418-3.87012,1.60156-1.02051,1.06836-1.53027,2.70605-1.53027,4.91406v9.32422h-2.87988Z"/><path class="cls-6" d="m1013.78516,835.76502c-2.51953,0-4.51172-.7793-5.97559-2.33984-1.46387-1.55957-2.19629-3.75586-2.19629-6.58789v-1.33203c0-1.84766.33594-3.4375,1.00781-4.76953s1.62598-2.3584,2.8623-3.07812c1.23633-.7207,2.66992-1.08008,4.30176-1.08008h.28809c1.60742,0,2.99414.33594,4.1582,1.00781s2.07031,1.62598,2.71777,2.8623c.64844,1.23633.97266,2.68164.97266,4.33789v2.19629h-13.46484c.02441,2.13574.50977,3.73145,1.45801,4.78711.94824,1.05664,2.23828,1.58398,3.87012,1.58398h.54004c1.2002,0,2.17871-.21582,2.93457-.64746s1.36133-1.05566,1.81738-1.87207l2.19629,1.33203c-.62402,1.10449-1.53027,1.97949-2.71777,2.62793-1.18848.64844-2.59863.97168-4.23047.97168h-.54004Zm-5.29199-10.97949h10.58398v-.39648c0-1.77539-.44922-3.11914-1.34961-4.03125s-2.11816-1.36816-3.6543-1.36816h-.28809c-1.48828,0-2.71777.49219-3.68945,1.47559-.97266.98438-1.50684,2.4248-1.60254,4.32031Z"/><path class="cls-6" d="m1026.49316,835.33338v-18.32422h2.62793v3.27637c.50391-1.10352,1.27148-1.99805,2.30371-2.68262,1.03223-.68359,2.31641-1.02539,3.85254-1.02539h.32324c2.08887,0,3.7627.63574,5.02246,1.9082s1.88965,3.13184,1.88965,5.58008v11.26758h-2.87988v-10.7998c0-1.7998-.39551-3.16211-1.1875-4.08594s-1.93262-1.38672-3.41992-1.38672h-.25195c-.96094,0-1.84863.23438-2.66406.70215-.81641.46875-1.47656,1.16504-1.98047,2.08789-.50391.9248-.75586,2.08301-.75586,3.47461v10.00781h-2.87988Z"/><path class="cls-6" d="m1055.43652,835.76502c-2.56836,0-4.61426-.7793-6.1377-2.33984-1.52441-1.55957-2.28613-3.75586-2.28613-6.58789v-1.33203c0-1.87207.35352-3.47363,1.0625-4.80566.70703-1.33203,1.69727-2.35156,2.96973-3.06055,1.27148-.70703,2.73633-1.06152,4.3916-1.06152h.39648c1.60742,0,2.98828.37793,4.13965,1.13379,1.15234.75586,1.99219,1.75879,2.52051,3.00586l-2.30469,1.08008c-.4082-.83984-.97168-1.50586-1.69141-1.99805-.71973-.49121-1.6084-.73828-2.66406-.73828h-.36035c-1.63184,0-2.96973.54004-4.01367,1.62012s-1.56641,2.68848-1.56641,4.82422v1.33203c0,2.16016.50977,3.77441,1.53027,4.8418,1.01953,1.06836,2.37012,1.60254,4.0498,1.60254h.36035c1.10352,0,2.02148-.23438,2.75391-.70215.73145-.46777,1.29004-1.09766,1.67383-1.88965l2.30371,1.11523c-.52734,1.17676-1.37402,2.13086-2.53711,2.8623-1.16504.73145-2.5625,1.09766-4.19434,1.09766h-.39648Z"/><path class="cls-6" d="m1074.22852,835.76502c-2.52051,0-4.5127-.7793-5.97656-2.33984-1.46387-1.55957-2.19531-3.75586-2.19531-6.58789v-1.33203c0-1.84766.33594-3.4375,1.00781-4.76953s1.62598-2.3584,2.8623-3.07812c1.23535-.7207,2.66895-1.08008,4.30176-1.08008h.28809c1.60742,0,2.99316.33594,4.1582,1.00781,1.16309.67188,2.06934,1.62598,2.71777,2.8623.64746,1.23633.97168,2.68164.97168,4.33789v2.19629h-13.46387c.02344,2.13574.50977,3.73145,1.45801,4.78711.94727,1.05664,2.2373,1.58398,3.87012,1.58398h.54004c1.19922,0,2.17773-.21582,2.93359-.64746s1.3623-1.05566,1.81836-1.87207l2.19629,1.33203c-.625,1.10449-1.53027,1.97949-2.71875,2.62793-1.1875.64844-2.59766.97168-4.22949.97168h-.54004Zm-5.29199-10.97949h10.58398v-.39648c0-1.77539-.4502-3.11914-1.35059-4.03125-.89941-.91211-2.11816-1.36816-3.65332-1.36816h-.28809c-1.48828,0-2.71777.49219-3.69043,1.47559-.97168.98438-1.50586,2.4248-1.60156,4.32031Z"/><path class="cls-6" d="m1094.56738,810.13318h3.24023l6.12012,20.77246,5.90332-20.77246h2.88086l5.90332,20.80859,6.15625-20.80859h3.05957l-7.88379,25.2002h-2.73535l-5.97656-20.91602-6.01172,20.91602h-2.73633l-7.91992-25.2002Z"/><path class="cls-6" d="m1137.15625,835.76502c-1.58398,0-3.00684-.35449-4.2666-1.06152-1.25977-.70801-2.25586-1.7334-2.9873-3.07812-.73242-1.34375-1.09863-2.95215-1.09863-4.82422v-1.25977c0-1.87207.36621-3.47949,1.09863-4.82422.73145-1.34375,1.72754-2.36914,2.9873-3.07812,1.25977-.70703,2.68262-1.06152,4.2666-1.06152h.35938c1.60742,0,3.04199.35449,4.30273,1.06152,1.25977.70898,2.25488,1.72852,2.9873,3.06055s1.09863,2.93359,1.09863,4.80566v1.33203c0,1.87207-.36621,3.47363-1.09863,4.80566s-1.72754,2.35254-2.9873,3.06055c-1.26074.70703-2.69531,1.06152-4.30273,1.06152h-.35938Zm.03516-2.4834h.28809c1.56055,0,2.87402-.54004,3.94238-1.62012,1.06738-1.08008,1.60156-2.6875,1.60156-4.82422v-1.33203c0-2.13574-.53418-3.74414-1.60156-4.82422-1.06836-1.08008-2.38184-1.62012-3.94238-1.62012h-.28809c-1.53613,0-2.83789.54004-3.90527,1.62012-1.06836,1.08008-1.60254,2.68848-1.60254,4.82422v1.33203c0,2.13672.53418,3.74414,1.60254,4.82422,1.06738,1.08008,2.36914,1.62012,3.90527,1.62012Z"/><path class="cls-6" d="m1150.61914,835.33338v-18.32422h2.62793v3.85254c.43262-1.2002,1.08594-2.16602,1.96289-2.89844.875-.73145,2.15332-1.09766,3.83398-1.09766h1.69141v2.62793h-1.83594c-1.56055,0-2.85059.53418-3.87012,1.60156-1.02051,1.06836-1.53027,2.70605-1.53027,4.91406v9.32422h-2.87988Z"/><path class="cls-6" d="m1164.91113,835.33338v-26.2793h2.87988v16.23535l9.07227-8.28027h3.7793l-7.66797,6.94824,8.24414,11.37598h-3.49219l-6.87598-9.6123-3.05957,2.77246v6.83984h-2.87988Z"/><path class="cls-6" d="m1184.63867,835.33338v-26.2793h2.88086v26.2793h-2.88086Z"/><path class="cls-6" d="m1200.62207,835.76502c-1.58398,0-3.00586-.35449-4.26562-1.06152-1.25977-.70801-2.25586-1.7334-2.98828-3.07812-.73242-1.34375-1.09766-2.95215-1.09766-4.82422v-1.25977c0-1.87207.36523-3.47949,1.09766-4.82422.73242-1.34375,1.72852-2.36914,2.98828-3.07812,1.25977-.70703,2.68164-1.06152,4.26562-1.06152h.36035c1.60742,0,3.04199.35449,4.30176,1.06152,1.26074.70898,2.25586,1.72852,2.98828,3.06055.73145,1.33203,1.09766,2.93359,1.09766,4.80566v1.33203c0,1.87207-.36621,3.47363-1.09766,4.80566-.73242,1.33203-1.72754,2.35254-2.98828,3.06055-1.25977.70703-2.69434,1.06152-4.30176,1.06152h-.36035Zm.03613-2.4834h.28809c1.55957,0,2.87402-.54004,3.94238-1.62012,1.06738-1.08008,1.60156-2.6875,1.60156-4.82422v-1.33203c0-2.13574-.53418-3.74414-1.60156-4.82422-1.06836-1.08008-2.38281-1.62012-3.94238-1.62012h-.28809c-1.53613,0-2.83789.54004-3.90625,1.62012-1.06738,1.08008-1.60156,2.68848-1.60156,4.82422v1.33203c0,2.13672.53418,3.74414,1.60156,4.82422,1.06836,1.08008,2.37012,1.62012,3.90625,1.62012Z"/><path class="cls-6" d="m1218.83789,835.76502c-1.96777,0-3.48047-.46777-4.53613-1.40332-1.05566-.93652-1.58398-2.28027-1.58398-4.03223,0-1.44043.4502-2.62207,1.35059-3.5459.89941-.92383,2.22559-1.50586,3.97754-1.74609l7.2002-.97168v-.14453c0-3.28809-1.46387-4.93164-4.3916-4.93164h-.39648c-2.30371,0-3.87598.8877-4.71582,2.66406l-2.30371-1.11621c.55176-1.24805,1.43359-2.21973,2.64551-2.91602s2.66992-1.04395,4.37402-1.04395h.54004c2.32715,0,4.09766.6123,5.30957,1.83594s1.81836,3,1.81836,5.32812v11.5918h-2.62793v-3.27637c-.55273,1.15234-1.39258,2.05859-2.51953,2.71875-1.12891.65918-2.40039.98926-3.81641.98926h-.32422Zm6.4082-9.50391l-5.97559.86426c-1.39258.19238-2.36426.5166-2.91602.97168-.55273.45605-.82812,1.15234-.82812,2.08789,0,1.03223.3291,1.82422.98926,2.37598.66016.55273,1.61426.82812,2.8623.82812h.36035c1.65625,0,2.9873-.52734,3.99609-1.58398,1.00781-1.05566,1.51172-2.45996,1.51172-4.21191v-1.33203Z"/><path class="cls-6" d="m1240.50977,835.76502c-1.51172,0-2.8623-.3418-4.0498-1.02539-1.18848-.68457-2.12402-1.69824-2.80762-3.04199-.68457-1.34375-1.02637-2.97559-1.02637-4.89648v-1.2959c0-1.91992.3418-3.5459,1.02637-4.87793.68359-1.33203,1.61914-2.33984,2.80762-3.02441,1.1875-.68359,2.53809-1.02539,4.0498-1.02539h.21582c1.3916,0,2.59277.29395,3.60059.88184,1.00781.58887,1.7998,1.37402,2.37598,2.3584v-10.76367h2.87988v26.2793h-2.62793v-3.16797c-.55273,1.08008-1.35059,1.9502-2.39453,2.61035-1.04395.65918-2.32129.98926-3.83398.98926h-.21582Zm.46777-2.4834h.32422c1.00781,0,1.91992-.22852,2.73633-.68457.81543-.45508,1.46387-1.16309,1.94336-2.12402.48047-.95898.7207-2.20703.7207-3.74316v-1.11621c0-1.53613-.24707-2.78418-.73828-3.74414-.49219-.95996-1.14648-1.66797-1.96191-2.12402-.81641-.45605-1.71582-.68457-2.7002-.68457h-.32422c-1.55957,0-2.86133.52246-3.90527,1.56641s-1.56641,2.66992-1.56641,4.87793v1.2959c0,2.20898.52246,3.84082,1.56641,4.89648s2.3457,1.58398,3.90527,1.58398Z"/><path class="cls-4" d="m826.58447,906.4281v-25.2002h2.98828v11.12402h13.85986v-11.12402h2.98779v25.2002h-2.98779v-11.48438h-13.85986v11.48438h-2.98828Z"/><path class="cls-4" d="m860.24414,906.4281v-22.24805h-3.99561l.35986-2.51953h6.58789v24.76758h-2.95215Z"/><path class="cls-4" d="m882.02393,906.85975c-2.92822,0-5.19629-.9834-6.8042-2.95117s-2.41162-4.72852-2.41162-8.28027v-3.16797c0-3.57617.80371-6.3418,2.41162-8.29785s3.87598-2.93457,6.8042-2.93457h.43213c2.92773,0,5.18945.97852,6.78564,2.93457s2.39404,4.72168,2.39404,8.29785v3.16797c0,3.55176-.79785,6.3125-2.39404,8.28027s-3.85791,2.95117-6.78564,2.95117h-.43213Zm0-2.62793h.43213c2.01611,0,3.55762-.74316,4.62598-2.23145,1.06738-1.48828,1.60205-3.63672,1.60205-6.44434v-3.05957c0-2.78418-.53467-4.92578-1.60205-6.42578-1.06836-1.5-2.60986-2.25-4.62598-2.25h-.43213c-2.01611,0-3.55859.75-4.62598,2.25-1.06836,1.5-1.60205,3.6416-1.60205,6.42578v3.05957c0,2.80762.53369,4.95605,1.60205,6.44434,1.06738,1.48828,2.60986,2.23145,4.62598,2.23145Z"/><path class="cls-4" d="m903.62354,906.85975c-2.92822,0-5.19629-.9834-6.8042-2.95117s-2.41162-4.72852-2.41162-8.28027v-3.16797c0-3.57617.80371-6.3418,2.41162-8.29785s3.87598-2.93457,6.8042-2.93457h.43213c2.92773,0,5.18945.97852,6.78564,2.93457,1.59617,1.95605,2.39404,4.72168,2.39404,8.29785v3.16797c0,3.55176-.79787,6.3125-2.39404,8.28027-1.59619,1.96777-3.85791,2.95117-6.78564,2.95117h-.43213Zm0-2.62793h.43213c2.01611,0,3.55762-.74316,4.62598-2.23145,1.06738-1.48828,1.60205-3.63672,1.60205-6.44434v-3.05957c0-2.78418-.53467-4.92578-1.60205-6.42578-1.06836-1.5-2.60986-2.25-4.62598-2.25h-.43213c-2.01611,0-3.55859.75-4.62598,2.25-1.06836,1.5-1.60205,3.6416-1.60205,6.42578v3.05957c0,2.80762.53369,4.95605,1.60205,6.44434,1.06738,1.48828,2.60986,2.23145,4.62598,2.23145Z"/><rect class="cls-7" x="755.29005" y="873.63691" width="41.66163" height="41.66163"/><path class="cls-4" d="m1045.91699,906.4281v-25.2002h2.98828v11.12402h13.85938v-11.12402h2.98828v25.2002h-2.98828v-11.48438h-13.85938v11.48438h-2.98828Z"/><path class="cls-4" d="m1071.72852,906.4281v-3.02441c0-3.5752,1.5957-6.19141,4.78809-7.84766l4.82422-2.51953c2.42383-1.24805,3.63574-2.86816,3.63574-4.86035v-.50391c0-1.17578-.44434-2.12402-1.33203-2.84375s-2.05176-1.08008-3.49219-1.08008h-.28809c-1.46387,0-2.63965.27637-3.52734.82812-.88867.55176-1.57227,1.42773-2.05273,2.62695l-2.4834-1.0791c1.24707-3.26367,3.93555-4.89648,8.06348-4.89648h.39648c1.53516,0,2.87402.26465,4.01367.79199,1.13965.52832,2.02832,1.2666,2.66406,2.21484s.9541,2.06934.9541,3.36523v.6123c0,1.58398-.40234,2.92773-1.20605,4.03223-.80469,1.10352-2.16602,2.14746-4.08594,3.13184l-4.67969,2.41211c-1.10449.55176-1.9082,1.30762-2.41211,2.26758s-.75586,2.16016-.75586,3.59961v.18066h13.2832v2.5918h-16.30762Z"/><path class="cls-4" d="m1101.35645,906.85975c-2.92871,0-5.19629-.9834-6.80469-2.95117-1.60742-1.96777-2.41113-4.72852-2.41113-8.28027v-3.16797c0-3.57617.80371-6.3418,2.41113-8.29785,1.6084-1.95605,3.87598-2.93457,6.80469-2.93457h.43164c2.92773,0,5.18945.97852,6.78613,2.93457,1.5957,1.95605,2.39355,4.72168,2.39355,8.29785v3.16797c0,3.55176-.79785,6.3125-2.39355,8.28027-1.59668,1.96777-3.8584,2.95117-6.78613,2.95117h-.43164Zm0-2.62793h.43164c2.0166,0,3.55762-.74316,4.62598-2.23145,1.06738-1.48828,1.60254-3.63672,1.60254-6.44434v-3.05957c0-2.78418-.53516-4.92578-1.60254-6.42578-1.06836-1.5-2.60938-2.25-4.62598-2.25h-.43164c-2.0166,0-3.55859.75-4.62598,2.25-1.06836,1.5-1.60254,3.6416-1.60254,6.42578v3.05957c0,2.80762.53418,4.95605,1.60254,6.44434,1.06738,1.48828,2.60938,2.23145,4.62598,2.23145Z"/><path class="cls-4" d="m1122.95605,906.85975c-2.92871,0-5.19629-.9834-6.80469-2.95117-1.60742-1.96777-2.41113-4.72852-2.41113-8.28027v-3.16797c0-3.57617.80371-6.3418,2.41113-8.29785,1.6084-1.95605,3.87598-2.93457,6.80469-2.93457h.43164c2.92773,0,5.18945.97852,6.78613,2.93457,1.5957,1.95605,2.39355,4.72168,2.39355,8.29785v3.16797c0,3.55176-.79785,6.3125-2.39355,8.28027-1.59668,1.96777-3.8584,2.95117-6.78613,2.95117h-.43164Zm0-2.62793h.43164c2.0166,0,3.55762-.74316,4.62598-2.23145,1.06738-1.48828,1.60254-3.63672,1.60254-6.44434v-3.05957c0-2.78418-.53516-4.92578-1.60254-6.42578-1.06836-1.5-2.60938-2.25-4.62598-2.25h-.43164c-2.0166,0-3.55859.75-4.62598,2.25-1.06836,1.5-1.60254,3.6416-1.60254,6.42578v3.05957c0,2.80762.53418,4.95605,1.60254,6.44434,1.06738,1.48828,2.60938,2.23145,4.62598,2.23145Z"/><rect class="cls-5" x="974.62209" y="873.63691" width="41.66163" height="41.66163"/><line class="cls-3" x1="200.02593" y1="707.01056" x2="1689.23582" y2="707.01056"/><path class="cls-4" d="m416.48193,770.62537v-22.64355h-8.1001v-2.55664h19.18799v2.55664h-8.09961v22.64355h-2.98828Z"/><path class="cls-4" d="m435.99463,771.05701c-1.58398,0-3.00635-.35449-4.26611-1.06152-1.25977-.70801-2.25635-1.7334-2.98779-3.07812-.73242-1.34375-1.09814-2.95215-1.09814-4.82422v-1.25977c0-1.87207.36572-3.47949,1.09814-4.82422.73145-1.34375,1.72803-2.36914,2.98779-3.07812,1.25977-.70703,2.68213-1.06152,4.26611-1.06152h.35986c1.60742,0,3.04199.35449,4.30225,1.06152,1.25977.70898,2.25537,1.72852,2.98779,3.06055.73193,1.33203,1.09814,2.93359,1.09814,4.80566v1.33203c0,1.87207-.36621,3.47363-1.09814,4.80566-.73242,1.33203-1.72803,2.35254-2.98779,3.06055-1.26025.70703-2.69482,1.06152-4.30225,1.06152h-.35986Zm.03564-2.4834h.28809c1.56006,0,2.87402-.54004,3.94238-1.62012,1.06738-1.08008,1.60156-2.6875,1.60156-4.82422v-1.33203c0-2.13574-.53418-3.74414-1.60156-4.82422-1.06836-1.08008-2.38232-1.62012-3.94238-1.62012h-.28809c-1.53613,0-2.83838.54004-3.90576,1.62012-1.06836,1.08008-1.60205,2.68848-1.60205,4.82422v1.33203c0,2.13672.53369,3.74414,1.60205,4.82422,1.06738,1.08008,2.36963,1.62012,3.90576,1.62012Z"/><path class="cls-4" d="m455.97412,770.76893c-2.1123,0-3.6123-.49121-4.5-1.47559-.88818-.9834-1.33203-2.32715-1.33203-4.03223v-10.58398h-3.92383v-2.37598h3.92383v-5.54395h2.87988v5.54395h6.33594l-.396,2.37598h-5.93994v10.4043c0,1.15234.26367,1.98633.79199,2.50195.52783.5166,1.34375.77441,2.44824.77441h3.0957v2.41113h-3.38379Z"/><path class="cls-4" d="m468.42969,771.05701c-1.96826,0-3.47998-.46777-4.53564-1.40332-1.05664-.93652-1.58398-2.28027-1.58398-4.03223,0-1.44043.44971-2.62207,1.34961-3.5459.90039-.92383,2.22607-1.50586,3.97803-1.74609l7.2002-.97168v-.14453c0-3.28809-1.46436-4.93164-4.39209-4.93164h-.396c-2.30371,0-3.87598.8877-4.71582,2.66406l-2.3042-1.11621c.55176-1.24805,1.43408-2.21973,2.646-2.91602s2.66992-1.04395,4.37402-1.04395h.54004c2.32764,0,4.09764.6123,5.31006,1.83594,1.21143,1.22363,1.81787,3,1.81787,5.32812v11.5918h-2.62793v-3.27637c-.55225,1.15234-1.39209,2.05859-2.52002,2.71875-1.12842.65918-2.40039.98926-3.81592.98926h-.32422Zm6.4082-9.50391l-5.97607.86426c-1.39209.19238-2.36426.5166-2.91602.97168-.55225.45605-.82812,1.15234-.82812,2.08789,0,1.03223.32959,1.82422.99023,2.37598.65967.55273,1.61377.82812,2.86182.82812h.36035c1.65576,0,2.98779-.52734,3.99561-1.58398,1.0083-1.05566,1.51221-2.45996,1.51221-4.21191v-1.33203Z"/><path class="cls-4" d="m483.22559,770.62537v-26.2793h2.87988v26.2793h-2.87988Z"/><path class="cls-4" d="m511.34131,771.05701c-3.47998,0-6.15039-1.07324-8.00977-3.22168-1.86035-2.14746-2.79004-5.15332-2.79004-9.01758v-1.62012c0-2.49609.43213-4.66211,1.2959-6.49805.86426-1.83594,2.10596-3.25195,3.72607-4.24805,1.62012-.99512,3.5459-1.49414,5.77783-1.49414h.46826c2.27979,0,4.19971.52832,5.75977,1.58398,1.56006,1.05664,2.66406,2.55664,3.31201,4.5l-2.73584.93555c-.45605-1.41504-1.23633-2.49512-2.33984-3.23926-1.10449-.74414-2.43652-1.11621-3.99609-1.11621h-.43213c-2.47217,0-4.39795.82812-5.77783,2.48438-1.38037,1.65527-2.07031,3.99512-2.07031,7.01953v1.76367c0,3.12012.67188,5.49023,2.01611,7.11035,1.34375,1.62012,3.2876,2.42969,5.83203,2.42969h.43213c1.60742,0,2.98145-.35352,4.12207-1.06152,1.13965-.70801,1.9375-1.74609,2.39355-3.11426l2.66406,1.04395c-.67188,1.82422-1.80615,3.24023-3.40186,4.24805-1.59619,1.00781-3.52246,1.51172-5.77783,1.51172h-.46826Z"/><path class="cls-4" d="m532.8335,771.05701c-1.58398,0-3.00635-.35449-4.26611-1.06152-1.25977-.70801-2.25635-1.7334-2.98779-3.07812-.73242-1.34375-1.09814-2.95215-1.09814-4.82422v-1.25977c0-1.87207.36572-3.47949,1.09814-4.82422.73145-1.34375,1.72803-2.36914,2.98779-3.07812,1.25977-.70703,2.68213-1.06152,4.26611-1.06152h.35986c1.60742,0,3.04199.35449,4.30225,1.06152,1.25977.70898,2.25537,1.72852,2.98779,3.06055.73193,1.33203,1.09814,2.93359,1.09814,4.80566v1.33203c0,1.87207-.36621,3.47363-1.09814,4.80566-.73242,1.33203-1.72803,2.35254-2.98779,3.06055-1.26025.70703-2.69482,1.06152-4.30225,1.06152h-.35986Zm.03564-2.4834h.28809c1.56006,0,2.87402-.54004,3.94238-1.62012,1.06738-1.08008,1.60156-2.6875,1.60156-4.82422v-1.33203c0-2.13574-.53418-3.74414-1.60156-4.82422-1.06836-1.08008-2.38232-1.62012-3.94238-1.62012h-.28809c-1.53613,0-2.83838.54004-3.90576,1.62012-1.06836,1.08008-1.60205,2.68848-1.60205,4.82422v1.33203c0,2.13672.53369,3.74414,1.60205,4.82422,1.06738,1.08008,2.36963,1.62012,3.90576,1.62012Z"/><path class="cls-4" d="m552.74121,771.05701c-4.00879,0-6.62402-1.40332-7.84814-4.21191l2.30371-1.15137c.47998,1.00781,1.17041,1.75195,2.07031,2.23145.8999.48047,2.06982.71973,3.50977.71973h.396c2.88037,0,4.32031-.92285,4.32031-2.77148v-.17969c0-1.6084-.94873-2.53223-2.84424-2.77246l-4.104-.57617c-1.60791-.21582-2.8501-.73145-3.72607-1.54785-.87646-.81543-1.31396-1.91992-1.31396-3.31152v-.39648c0-1.55957.62402-2.81934,1.87207-3.78027,1.24756-.95898,2.89209-1.43945,4.93213-1.43945h.46777c1.67969,0,3.14404.3418,4.39209,1.02539,1.24756.68457,2.11182,1.63867,2.59229,2.8623l-2.3042,1.04395c-.76855-1.67969-2.32812-2.51953-4.68018-2.51953h-.43164c-1.24854,0-2.23828.25195-2.97021.75586-.73242.50391-1.09814,1.17578-1.09814,2.01562v.21582c0,.74512.22168,1.31445.66602,1.70996.44385.39648,1.16992.66602,2.17822.81055l4.14014.57617c1.58398.21582,2.81348.76855,3.68994,1.65625.87549.8877,1.31396,2.04004,1.31396,3.45508v.39648c0,1.7041-.6001,2.99414-1.80029,3.87012s-2.95166,1.31348-5.25586,1.31348h-.46777Z"/><path class="cls-4" d="m572.03711,770.76893c-2.1123,0-3.6123-.49121-4.5-1.47559-.88818-.9834-1.33203-2.32715-1.33203-4.03223v-10.58398h-3.92383v-2.37598h3.92383v-5.54395h2.87988v5.54395h6.33594l-.396,2.37598h-5.93994v10.4043c0,1.15234.26367,1.98633.79199,2.50195.52783.5166,1.34375.77441,2.44824.77441h3.0957v2.41113h-3.38379Z"/><path class="cls-4" d="m596.37256,771.05701c-1.58398,0-3.00635-.35449-4.26611-1.06152-1.25977-.70801-2.25635-1.7334-2.98779-3.07812-.73242-1.34375-1.09814-2.95215-1.09814-4.82422v-1.25977c0-1.87207.36572-3.47949,1.09814-4.82422.73145-1.34375,1.72803-2.36914,2.98779-3.07812,1.25977-.70703,2.68213-1.06152,4.26611-1.06152h.35986c1.60742,0,3.04199.35449,4.30225,1.06152,1.25977.70898,2.25537,1.72852,2.98779,3.06055.73193,1.33203,1.09814,2.93359,1.09814,4.80566v1.33203c0,1.87207-.36621,3.47363-1.09814,4.80566-.73242,1.33203-1.72803,2.35254-2.98779,3.06055-1.26025.70703-2.69482,1.06152-4.30225,1.06152h-.35986Zm.03564-2.4834h.28809c1.56006,0,2.87402-.54004,3.94238-1.62012,1.06738-1.08008,1.60156-2.6875,1.60156-4.82422v-1.33203c0-2.13574-.53418-3.74414-1.60156-4.82422-1.06836-1.08008-2.38232-1.62012-3.94238-1.62012h-.28809c-1.53613,0-2.83838.54004-3.90576,1.62012-1.06836,1.08008-1.60205,2.68848-1.60205,4.82422v1.33203c0,2.13672.53369,3.74414,1.60205,4.82422,1.06738,1.08008,2.36963,1.62012,3.90576,1.62012Z"/><path class="cls-4" d="m611.49268,770.62537v-15.94824h-3.81592v-2.37598h3.81592v-1.83594c0-1.94336.50391-3.47949,1.51172-4.60742,1.0083-1.12793,2.604-1.69238,4.78809-1.69238h3.06006v2.44824h-2.98779c-1.20068,0-2.08252.31836-2.646.9541-.56445.63574-.84619,1.56543-.84619,2.79004v1.94336h6.47998l-.35986,2.37598h-6.12012v15.94824h-2.87988Z"/><path class="cls-4" d="m644.18018,771.05701c-2.32812,0-4.31445-.50879-5.95801-1.5293-1.64453-1.02051-2.89795-2.44824-3.76221-4.28418-.86377-1.83594-1.2959-3.97852-1.2959-6.42578v-1.58398c0-2.44824.43213-4.59082,1.2959-6.42578.86426-1.83594,2.11768-3.27051,3.76221-4.30273,1.64355-1.03125,3.62988-1.54785,5.95801-1.54785h.43164c2.32764,0,4.31396.5166,5.95801,1.54785,1.64355,1.03223,2.89795,2.4668,3.76221,4.30273.86377,1.83496,1.2959,3.97754,1.2959,6.42578v1.58398c0,2.44727-.43213,4.58984-1.2959,6.42578-.86426,1.83594-2.11865,3.26367-3.76221,4.28418-1.64404,1.02051-3.63037,1.5293-5.95801,1.5293h-.43164Zm0-2.62793h.43164c2.56787,0,4.54785-.85156,5.93994-2.55566s2.08838-4.03223,2.08838-6.98438v-1.76367c0-2.95215-.69629-5.27441-2.08838-6.96582-1.39209-1.69238-3.37207-2.53809-5.93994-2.53809h-.43164c-2.54443,0-4.51807.8457-5.92236,2.53809-1.40381,1.69141-2.10596,4.01367-2.10596,6.96582v1.76367c0,2.95215.70215,5.28027,2.10596,6.98438,1.4043,1.7041,3.37793,2.55566,5.92236,2.55566Z"/><path class="cls-4" d="m658.50781,752.30115h3.02441l4.46387,14.43652,4.31982-14.43652h2.55615l4.28369,14.40039,4.46436-14.40039h2.84375l-6.04785,18.32422h-2.55615l-4.35596-14.36426-4.35596,14.36426h-2.55615l-6.08398-18.32422Z"/><path class="cls-4" d="m688.02783,770.62537v-18.32422h2.62793v3.27637c.50439-1.10352,1.27197-1.99805,2.3042-2.68262,1.03174-.68359,2.31592-1.02539,3.85205-1.02539h.32373c2.08838,0,3.76221.63574,5.02197,1.9082,1.26025,1.27246,1.89014,3.13184,1.89014,5.58008v11.26758h-2.87988v-10.7998c0-1.7998-.396-3.16211-1.18799-4.08594s-1.93213-1.38672-3.41992-1.38672h-.25195c-.96045,0-1.84863.23438-2.66406.70215-.81641.46875-1.47607,1.16504-1.97998,2.08789-.50391.9248-.75635,2.08301-.75635,3.47461v10.00781h-2.87988Z"/><path class="cls-4" d="m716.71973,771.05701c-2.52002,0-4.51221-.7793-5.97607-2.33984-1.46387-1.55957-2.1958-3.75586-2.1958-6.58789v-1.33203c0-1.84766.33594-3.4375,1.00781-4.76953s1.62598-2.3584,2.8623-3.07812c1.23584-.7207,2.66943-1.08008,4.30176-1.08008h.28809c1.60742,0,2.99365.33594,4.1582,1.00781,1.16357.67188,2.06982,1.62598,2.71777,2.8623s.97217,2.68164.97217,4.33789v2.19629h-13.46436c.02393,2.13574.50977,3.73145,1.45801,4.78711.94775,1.05664,2.23779,1.58398,3.87012,1.58398h.54004c1.19971,0,2.17822-.21582,2.93408-.64746s1.36182-1.05566,1.81787-1.87207l2.19629,1.33203c-.62451,1.10449-1.53027,1.97949-2.71826,2.62793s-2.59814.97168-4.22998.97168h-.54004Zm-5.29199-10.97949h10.58398v-.39648c0-1.77539-.44971-3.11914-1.3501-4.03125-.8999-.91211-2.11816-1.36816-3.65381-1.36816h-.28809c-1.48828,0-2.71777.49219-3.68994,1.47559-.97217.98438-1.50635,2.4248-1.60205,4.32031Z"/><path class="cls-4" d="m729.42725,770.62537v-18.32422h2.62793v3.85254c.43213-1.2002,1.08594-2.16602,1.9624-2.89844.87549-.73145,2.15381-1.09766,3.83398-1.09766h1.69189v2.62793h-1.83594c-1.56055,0-2.85059.53418-3.87012,1.60156-1.02051,1.06836-1.53027,2.70605-1.53027,4.91406v9.32422h-2.87988Z"/><path class="cls-4" d="m749.80322,771.05701c-4.00879,0-6.62402-1.40332-7.84814-4.21191l2.30371-1.15137c.47998,1.00781,1.17041,1.75195,2.07031,2.23145.8999.48047,2.06982.71973,3.50977.71973h.396c2.88037,0,4.32031-.92285,4.32031-2.77148v-.17969c0-1.6084-.94873-2.53223-2.84424-2.77246l-4.104-.57617c-1.60791-.21582-2.8501-.73145-3.72607-1.54785-.87646-.81543-1.31396-1.91992-1.31396-3.31152v-.39648c0-1.55957.62402-2.81934,1.87207-3.78027,1.24756-.95898,2.89209-1.43945,4.93213-1.43945h.46777c1.67969,0,3.14404.3418,4.39209,1.02539,1.24756.68457,2.11182,1.63867,2.59229,2.8623l-2.3042,1.04395c-.76855-1.67969-2.32812-2.51953-4.68018-2.51953h-.43164c-1.24854,0-2.23828.25195-2.97021.75586-.73242.50391-1.09814,1.17578-1.09814,2.01562v.21582c0,.74512.22168,1.31445.66602,1.70996.44385.39648,1.16992.66602,2.17822.81055l4.14014.57617c1.58398.21582,2.81348.76855,3.68994,1.65625.87549.8877,1.31396,2.04004,1.31396,3.45508v.39648c0,1.7041-.6001,2.99414-1.80029,3.87012s-2.95166,1.31348-5.25586,1.31348h-.46777Z"/><path class="cls-4" d="m761.68262,770.62537v-26.2793h2.87986v10.79883c.52785-.9834,1.29006-1.77539,2.28615-2.37598.99561-.59961,2.20166-.89941,3.61816-.89941h.32373c2.08838,0,3.76221.63574,5.02195,1.9082,1.26027,1.27246,1.89016,3.13184,1.89016,5.58008v11.26758h-2.87988v-10.7998c0-1.7998-.396-3.16211-1.18799-4.08594s-1.93213-1.38672-3.41992-1.38672h-.25195c-.96045,0-1.84863.23438-2.66406.70215-.81641.46875-1.47607,1.16504-1.97998,2.08789-.50391.9248-.75637,2.08301-.75637,3.47461v10.00781h-2.87986Z"/><path class="cls-4" d="m783.13867,748.44959v-3.27637h3.02393v3.27637h-3.02393Zm.07178,22.17578v-18.32422h2.87988v18.32422h-2.87988Z"/><path class="cls-4" d="m791.8501,777.82557v-25.52441h2.62793v3.13184c.55176-1.08008,1.3501-1.94336,2.39404-2.5918,1.04395-.64746,2.30957-.97168,3.79834-.97168h.25195c1.53564,0,2.8916.3418,4.06787,1.02539,1.17578.68457,2.10596,1.69238,2.79004,3.02441s1.02588,2.95801,1.02588,4.87793v1.33203c0,1.9209-.3418,3.5459-1.02588,4.87793s-1.61426,2.33984-2.79004,3.02441c-1.17627.68359-2.53223,1.02539-4.06787,1.02539h-.25195c-1.36816,0-2.5625-.28809-3.58203-.86328-1.02051-.57617-1.80615-1.35645-2.3584-2.34082v9.97266h-2.87988Zm8.28027-9.25195h.32373c1.56006,0,2.8623-.52832,3.90625-1.58398s1.56592-2.6875,1.56592-4.89648v-1.2959c0-2.20801-.52197-3.83398-1.56592-4.87793s-2.34619-1.56641-3.90625-1.56641h-.32373c-.98438,0-1.89014.22852-2.71826.68457s-1.48193,1.16406-1.96191,2.12402c-.48047.95996-.72021,2.20801-.72021,3.74414v1.11621c0,2.28027.52783,3.94141,1.58447,4.98535,1.05566,1.04395,2.32715,1.56641,3.81592,1.56641Z"/><path class="cls-4" d="m1159.45898,770.19471v-25.19922h15.62402v2.55566h-12.63574v8.60449h10.25977l-.32422,2.51953h-9.93555v8.96484h12.7793v2.55469h-15.76758Z"/><path class="cls-4" d="m1180.23047,770.19471v-18.32422h2.62793v3.27734c.50488-1.10352,1.27246-1.99805,2.30469-2.68359,1.03125-.68359,2.31543-1.02539,3.85156-1.02539h.32422c2.08789,0,3.76172.63672,5.02148,1.9082,1.26074,1.27344,1.89062,3.13281,1.89062,5.58008v11.26758h-2.87988v-10.79883c0-1.80078-.39648-3.16211-1.18848-4.08594s-1.93164-1.38672-3.41992-1.38672h-.25195c-.95996,0-1.84863.23438-2.66406.70117-.81641.46875-1.47559,1.16602-1.97949,2.08789-.50391.92578-.75684,2.08398-.75684,3.47461v10.00781h-2.87988Z"/><path class="cls-4" d="m1208.92285,770.62635c-2.52051,0-4.5127-.7793-5.97656-2.33984-1.46387-1.55859-2.19531-3.75586-2.19531-6.58789v-1.33203c0-1.84766.33594-3.4375,1.00781-4.76953s1.62598-2.35742,2.8623-3.07812c1.23535-.7207,2.66895-1.08008,4.30176-1.08008h.28809c1.60742,0,2.99316.33594,4.1582,1.00781,1.16309.67188,2.06934,1.62695,2.71777,2.86328.64746,1.23633.97168,2.68164.97168,4.33789v2.19531h-13.46387c.02344,2.13672.50977,3.73242,1.45801,4.78711.94727,1.05664,2.2373,1.58398,3.87012,1.58398h.54004c1.19922,0,2.17773-.21484,2.93359-.64648s1.3623-1.05664,1.81836-1.87305l2.19629,1.33203c-.625,1.10547-1.53027,1.98047-2.71875,2.62891-1.1875.64844-2.59766.9707-4.22949.9707h-.54004Zm-5.29199-10.97852h10.58398v-.39648c0-1.77539-.4502-3.11914-1.35059-4.03125-.89941-.91211-2.11816-1.36914-3.65332-1.36914h-.28809c-1.48828,0-2.71777.49219-3.69043,1.47656-.97168.98438-1.50586,2.42383-1.60156,4.32031Z"/><path class="cls-4" d="m1221.62988,770.19471v-18.32422h2.62793v3.85352c.43262-1.20117,1.08594-2.16602,1.96289-2.89844.875-.73242,2.15332-1.09766,3.83398-1.09766h1.69141v2.62695h-1.83594c-1.56055,0-2.85059.53516-3.87012,1.60156-1.02051,1.06836-1.53027,2.70703-1.53027,4.91406v9.32422h-2.87988Z"/><path class="cls-4" d="m1242.18555,777.89978c-3.55176,0-5.95215-1.14062-7.19922-3.41992l2.08789-1.51172c.52734.86328,1.1875,1.49219,1.97949,1.88867s1.84766.59375,3.16797.59375h.54004c3.43164,0,5.14844-1.89648,5.14844-5.6875v-2.77148c-1.17676,2.08789-3.14453,3.13086-5.9043,3.13086h-.21582c-1.58398,0-2.96484-.36523-4.13965-1.09766-1.17676-.73047-2.09473-1.75781-2.75488-3.07812-.66016-1.31836-.98926-2.85547-.98926-4.60742v-1.15234c0-1.75195.3291-3.28125.98926-4.58984s1.57812-2.32812,2.75488-3.06055c1.1748-.73047,2.55566-1.09766,4.13965-1.09766h.21582c3.02441,0,5.09961,1.20117,6.22852,3.59961v-3.13086h2.62793v17.82031c0,2.61523-.69629,4.63086-2.08789,6.04688-1.39258,1.41602-3.37305,2.125-5.94043,2.125h-.64844Zm.07227-10.25977h.32422c1.67969,0,3-.57617,3.95996-1.72852s1.44043-2.72461,1.44043-4.7168v-.86328c0-1.99219-.48047-3.55859-1.44043-4.69727-.95996-1.14062-2.28027-1.71094-3.95996-1.71094h-.32422c-1.67969,0-3.01172.57031-3.99609,1.71094-.98438,1.13867-1.47559,2.66992-1.47559,4.58984v1.11523c0,1.91992.49121,3.45117,1.47559,4.58984.98438,1.14062,2.31641,1.71094,3.99609,1.71094Z"/><path class="cls-4" d="m1255.61426,777.39588v-2.41211h1.00781c1.12793,0,1.98535-.25195,2.57422-.75586.58789-.50391,1.14551-1.47656,1.67383-2.91602l.39551-1.08008-7.23535-18.36133h3.05957l5.68848,15.30078,5.43555-15.30078h2.91602l-7.41602,19.54883c-.57617,1.56055-1.16406,2.77734-1.76367,3.6543-.60059.875-1.2959,1.48047-2.08789,1.81836-.79199.33594-1.77637.50391-2.95215.50391h-1.2959Z"/><path class="cls-4" d="m1303.38574,744.99549v15.33594c0,3.24023-.82812,5.76562-2.48438,7.57812-1.65527,1.8125-4.03125,2.7168-7.12793,2.7168h-.46777c-3.0957,0-5.47168-.9043-7.12793-2.7168s-2.48438-4.33789-2.48438-7.57812v-15.33594h2.98828v15.4082c0,2.49609.56348,4.38672,1.69238,5.66992,1.12793,1.2832,2.7832,1.92578,4.96777,1.92578h.39551c2.18359,0,3.83984-.64258,4.96875-1.92578,1.12695-1.2832,1.69141-3.17383,1.69141-5.66992v-15.4082h2.98828Z"/><path class="cls-4" d="m1315.22949,770.62635c-4.00879,0-6.62402-1.40234-7.84766-4.21094l2.30371-1.15234c.47949,1.00781,1.16992,1.75195,2.07031,2.23242.89941.48047,2.06934.71875,3.50977.71875h.39551c2.88086,0,4.32031-.92188,4.32031-2.77148v-.17969c0-1.60742-.94824-2.53125-2.84375-2.77148l-4.10449-.57617c-1.60742-.2168-2.84961-.73242-3.72559-1.54883-.87695-.81445-1.31445-1.91992-1.31445-3.31055v-.39648c0-1.56055.62402-2.82031,1.87207-3.78125,1.24805-.95898,2.89258-1.43945,4.93262-1.43945h.46777c1.67969,0,3.14355.3418,4.3916,1.02539,1.24805.68555,2.1123,1.63867,2.59277,2.86328l-2.30469,1.04297c-.76855-1.67969-2.32812-2.51953-4.67969-2.51953h-.43164c-1.24902,0-2.23828.25195-2.9707.75586s-1.09766,1.17578-1.09766,2.01562v.2168c0,.74414.22168,1.31445.66602,1.70898.44336.39648,1.16992.66602,2.17773.81055l4.14062.57617c1.58398.2168,2.81348.76953,3.68945,1.65625.87598.88867,1.31445,2.04102,1.31445,3.45508v.39648c0,1.70508-.60059,2.99414-1.80078,3.87109-1.2002.875-2.95117,1.3125-5.25586,1.3125h-.46777Z"/><path class="cls-4" d="m1334.27344,770.62635c-2.52051,0-4.5127-.7793-5.97656-2.33984-1.46387-1.55859-2.19531-3.75586-2.19531-6.58789v-1.33203c0-1.84766.33594-3.4375,1.00781-4.76953s1.62598-2.35742,2.8623-3.07812c1.23535-.7207,2.66895-1.08008,4.30176-1.08008h.28809c1.60742,0,2.99316.33594,4.1582,1.00781,1.16309.67188,2.06934,1.62695,2.71777,2.86328.64746,1.23633.97168,2.68164.97168,4.33789v2.19531h-13.46387c.02344,2.13672.50977,3.73242,1.45801,4.78711.94727,1.05664,2.2373,1.58398,3.87012,1.58398h.54004c1.19922,0,2.17773-.21484,2.93359-.64648s1.3623-1.05664,1.81836-1.87305l2.19629,1.33203c-.625,1.10547-1.53027,1.98047-2.71875,2.62891-1.1875.64844-2.59766.9707-4.22949.9707h-.54004Zm-5.29199-10.97852h10.58398v-.39648c0-1.77539-.4502-3.11914-1.35059-4.03125-.89941-.91211-2.11816-1.36914-3.65332-1.36914h-.28809c-1.48828,0-2.71777.49219-3.69043,1.47656-.97168.98438-1.50586,2.42383-1.60156,4.32031Z"/><rect class="cls-7" x="1103.64783" y="275.12238" width="120" height="431.88818"/><rect class="cls-7" x="463.71446" y="275.12238" width="120" height="431.88818"/><line class="cls-3" x1="602.18842" y1="275.12238" x2="798.72684" y2="275.12238"/><path class="cls-4" d="m675.56445,396.93201c-2.16016,0-3.96631-.39551-5.41797-1.1875-1.45215-.79199-2.47852-1.91992-3.07812-3.38379l3.31201-1.5127c.72021,1.75293,2.38818,2.62793,5.00391,2.62793h.28809c1.48779,0,2.68799-.38281,3.6001-1.15137.91162-.76758,1.36816-1.77637,1.36816-3.02441v-.54004c0-1.34375-.48047-2.42383-1.43994-3.24023-.96045-.81543-2.24463-1.22363-3.85205-1.22363h-.32422c-1.7041,0-3.31201.50391-4.82373,1.51172l-2.37598-1.08008.57568-12.99609h14.86816v3.56445h-11.52002l-.28809,6.76855c1.2959-.76855,2.85596-1.15234,4.68018-1.15234h.396c1.60742,0,3.01758.32422,4.22998.97168,1.21143.64844,2.15967,1.55469,2.84375,2.71777.68408,1.16504,1.02637,2.50195,1.02637,4.01465v.68359c0,1.53613-.36035,2.875-1.08008,4.01465-.72021,1.13965-1.72266,2.02832-3.00635,2.66309-1.28418.63574-2.80225.9541-4.55371.9541h-.43213Z"/><path class="cls-4" d="m697.34424,396.93201c-3.07227,0-5.43066-.98926-7.07422-2.96973-1.64404-1.97949-2.46582-4.78125-2.46582-8.40625v-2.87988c0-3.64746.82178-6.45605,2.46582-8.42383,1.64355-1.96777,4.00195-2.95215,7.07422-2.95215h.35986c3.09619,0,5.46582.98438,7.10986,2.95215,1.64355,1.96777,2.46631,4.77637,2.46631,8.42383v2.87988c0,3.625-.82275,6.42676-2.46631,8.40625-1.64404,1.98047-4.01367,2.96973-7.10986,2.96973h-.35986Zm0-3.56348h.35986c1.82373,0,3.19775-.67188,4.12207-2.0166.92334-1.34375,1.38574-3.28711,1.38574-5.83203v-2.80762c0-2.56738-.4624-4.51758-1.38574-5.85059-.92432-1.33203-2.29834-1.99805-4.12207-1.99805h-.35986c-1.82422,0-3.19873.66602-4.12207,1.99805-.92432,1.33301-1.38623,3.2832-1.38623,5.85059v2.80762c0,2.54492.46191,4.48828,1.38623,5.83203.92334,1.34473,2.29785,2.0166,4.12207,2.0166Z"/><path class="cls-4" d="m715.16357,385.26795c-1.68018,0-3.0542-.56934-4.12207-1.70996-1.06787-1.13965-1.60156-2.63281-1.60156-4.48145v-1.58398c0-1.84863.53369-3.3418,1.60156-4.48242,1.06787-1.13965,2.44189-1.70996,4.12207-1.70996h.21631c1.67969,0,3.05371.57031,4.12207,1.70996,1.06738,1.14062,1.60156,2.63379,1.60156,4.48242v1.58398c0,1.84863-.53418,3.3418-1.60156,4.48145-1.06836,1.14062-2.44238,1.70996-4.12207,1.70996h-.21631Zm-2.66406,11.23242l17.89209-24.76855h4.14014l-17.92822,24.76855h-4.104Zm2.66406-13.93164h.21631c.76758,0,1.37354-.29395,1.81787-.88281.44385-.58691.66602-1.50488.66602-2.75391v-1.2959c0-1.24805-.22217-2.16602-.66602-2.75391-.44434-.58789-1.05029-.88184-1.81787-.88184h-.21631c-1.65576,0-2.48389,1.21191-2.48389,3.63574v1.2959c0,2.4248.82812,3.63672,2.48389,3.63672Zm16.27197,14.39941c-1.68018,0-3.0542-.56934-4.12158-1.70996-1.06836-1.13965-1.60205-2.63379-1.60205-4.48145v-1.58398c0-1.84863.53369-3.3418,1.60205-4.48242,1.06738-1.13965,2.44141-1.70996,4.12158-1.70996h.21631c1.67969,0,3.05371.57031,4.12207,1.70996,1.06738,1.14062,1.60156,2.63379,1.60156,4.48242v1.58398c0,1.84766-.53418,3.3418-1.60156,4.48145-1.06836,1.14062-2.44238,1.70996-4.12207,1.70996h-.21631Zm0-2.7002h.21631c.76758,0,1.37354-.29297,1.81787-.88184.44385-.58789.66602-1.50586.66602-2.75391v-1.2959c0-1.24805-.22217-2.16602-.66602-2.75391-.44434-.58789-1.05029-.88184-1.81787-.88184h-.21631c-1.65576,0-2.48389,1.21191-2.48389,3.63574v1.2959c0,2.4248.82812,3.63574,2.48389,3.63574Z"/><rect class="cls-5" x="641.5366" y="495.85249" width="120" height="211.15807"/><line class="cls-3" x1="700.45764" y1="275.12244" x2="700.45764" y2="279.80799"/><line class="cls-1" x1="700.45764" y1="290.27356" x2="700.45764" y2="347.83435"/><line class="cls-3" x1="700.45764" y1="353.06702" x2="700.45764" y2="357.75281"/><line class="cls-3" x1="700.45764" y1="426.23255" x2="700.45764" y2="430.9181"/><line class="cls-2" x1="700.45764" y1="440.81507" x2="700.45764" y2="475.45398"/><line class="cls-3" x1="700.45764" y1="480.40247" x2="700.45764" y2="485.08826"/><polygon class="cls-8" points="692.97815 482.89978 700.45764 495.85242 707.93713 482.89978 692.97815 482.89978"/><line class="cls-3" x1="1247.76271" y1="275.12238" x2="1444.30112" y2="275.12238"/><path class="cls-4" d="m1321.13867,396.93201c-2.16016,0-3.96582-.39551-5.41797-1.1875s-2.47852-1.91992-3.07812-3.38379l3.3125-1.5127c.71973,1.75293,2.3877,2.62793,5.00391,2.62793h.28809c1.4873,0,2.6875-.38281,3.59961-1.15137.91211-.76758,1.36816-1.77637,1.36816-3.02441v-.54004c0-1.34375-.48047-2.42383-1.43945-3.24023-.96094-.81543-2.24512-1.22363-3.85254-1.22363h-.32422c-1.7041,0-3.31152.50391-4.82324,1.51172l-2.37598-1.08008.5752-12.99609h14.86816v3.56445h-11.51953l-.28809,6.76855c1.2959-.76855,2.85547-1.15234,4.67969-1.15234h.39648c1.60742,0,3.01758.32422,4.22949.97168,1.21191.64844,2.16016,1.55469,2.84375,2.71777.68457,1.16504,1.02637,2.50195,1.02637,4.01465v.68359c0,1.53613-.36035,2.875-1.08008,4.01465s-1.72266,2.02832-3.00586,2.66309c-1.28418.63574-2.80273.9541-4.55371.9541h-.43262Z"/><path class="cls-4" d="m1342.91895,396.93201c-3.07227,0-5.43066-.98926-7.07422-2.96973-1.64453-1.97949-2.46582-4.78125-2.46582-8.40625v-2.87988c0-3.64746.82129-6.45605,2.46582-8.42383,1.64355-1.96777,4.00195-2.95215,7.07422-2.95215h.35938c3.09668,0,5.46582.98438,7.11035,2.95215,1.64355,1.96777,2.46582,4.77637,2.46582,8.42383v2.87988c0,3.625-.82227,6.42676-2.46582,8.40625-1.64453,1.98047-4.01367,2.96973-7.11035,2.96973h-.35938Zm0-3.56348h.35938c1.82422,0,3.19824-.67188,4.12207-2.0166.92383-1.34375,1.38574-3.28711,1.38574-5.83203v-2.80762c0-2.56738-.46191-4.51758-1.38574-5.85059-.92383-1.33203-2.29785-1.99805-4.12207-1.99805h-.35938c-1.82422,0-3.19922.66602-4.12207,1.99805-.9248,1.33301-1.38672,3.2832-1.38672,5.85059v2.80762c0,2.54492.46191,4.48828,1.38672,5.83203.92285,1.34473,2.29785,2.0166,4.12207,2.0166Z"/><path class="cls-4" d="m1360.73828,385.26795c-1.68066,0-3.05469-.56934-4.12207-1.70996-1.06836-1.13965-1.60156-2.63281-1.60156-4.48145v-1.58398c0-1.84863.5332-3.3418,1.60156-4.48242,1.06738-1.13965,2.44141-1.70996,4.12207-1.70996h.21582c1.67969,0,3.05371.57031,4.12207,1.70996,1.06738,1.14062,1.60156,2.63379,1.60156,4.48242v1.58398c0,1.84863-.53418,3.3418-1.60156,4.48145-1.06836,1.14062-2.44238,1.70996-4.12207,1.70996h-.21582Zm-2.66406,11.23242l17.8916-24.76855h4.14062l-17.92871,24.76855h-4.10352Zm2.66406-13.93164h.21582c.76758,0,1.37402-.29395,1.81836-.88281.44336-.58691.66602-1.50488.66602-2.75391v-1.2959c0-1.24805-.22266-2.16602-.66602-2.75391-.44434-.58789-1.05078-.88184-1.81836-.88184h-.21582c-1.65625,0-2.48438,1.21191-2.48438,3.63574v1.2959c0,2.4248.82812,3.63672,2.48438,3.63672Zm16.27148,14.39941c-1.67969,0-3.05371-.56934-4.12109-1.70996-1.06836-1.13965-1.60254-2.63379-1.60254-4.48145v-1.58398c0-1.84863.53418-3.3418,1.60254-4.48242,1.06738-1.13965,2.44141-1.70996,4.12109-1.70996h.2168c1.67969,0,3.05371.57031,4.12207,1.70996,1.06738,1.14062,1.60156,2.63379,1.60156,4.48242v1.58398c0,1.84766-.53418,3.3418-1.60156,4.48145-1.06836,1.14062-2.44238,1.70996-4.12207,1.70996h-.2168Zm0-2.7002h.2168c.76758,0,1.37305-.29297,1.81738-.88184.44434-.58789.66602-1.50586.66602-2.75391v-1.2959c0-1.24805-.22168-2.16602-.66602-2.75391s-1.0498-.88184-1.81738-.88184h-.2168c-1.65527,0-2.4834,1.21191-2.4834,3.63574v1.2959c0,2.4248.82812,3.63574,2.4834,3.63574Z"/><rect class="cls-5" x="1287.11088" y="495.85249" width="120" height="211.15807"/><line class="cls-3" x1="1346.03192" y1="275.12244" x2="1346.03192" y2="279.80799"/><line class="cls-1" x1="1346.03192" y1="290.27356" x2="1346.03192" y2="347.83435"/><line class="cls-3" x1="1346.03192" y1="353.06702" x2="1346.03192" y2="357.75281"/><line class="cls-3" x1="1346.03192" y1="426.23255" x2="1346.03192" y2="430.9181"/><line class="cls-2" x1="1346.03192" y1="440.81507" x2="1346.03192" y2="475.45398"/><line class="cls-3" x1="1346.03192" y1="480.40247" x2="1346.03192" y2="485.08826"/><polygon class="cls-8" points="1338.55243 482.89978 1346.03192 495.85242 1353.51141 482.89978 1338.55243 482.89978"/></svg>